<?xml version="1.0" encoding="utf-8"?>
<!-- Generator: Adobe Illustrator 24.3.0, SVG Export Plug-In . SVG Version: 6.00 Build 0)  -->
<svg version="1.1" id="Слой_1" xmlns="http://www.w3.org/2000/svg" xmlns:xlink="http://www.w3.org/1999/xlink" x="0px" y="0px"
	 viewBox="0 0 36.8 36.8" style="enable-background:new 0 0 36.8 36.8;" xml:space="preserve">
<style type="text/css">
	.st0{fill:#FFBB43;stroke:#F28900;stroke-width:0.85;stroke-miterlimit:10;}
	.st1{fill:#FFFFFF;}
</style>
<g id="Слой_1_1_">
	<circle class="st0" cx="18.4" cy="18.4" r="18"/>
</g>
<g>
	<g>
		<path class="st1" d="M19,28.4V21c3.7-0.3,6.7-4.9,6.7-8.7c0-1.6-0.8-4.2-1.5-6.1L24,5.5c-0.1-0.2-0.3-0.4-0.5-0.4h-9.9
			c-0.2,0-0.4,0.1-0.5,0.4c-0.5,1.4-1.8,4.9-1.8,6.8c0,3.8,3,8.4,6.7,8.7v7.4c-2.8,0.1-5.6,1.1-5.6,2.8c0,0.3,0.2,0.6,0.6,0.6h11
			c0.3,0,0.6-0.2,0.6-0.6C24.5,29.5,21.8,28.5,19,28.4z M12.3,12.9c0-0.2,0-0.4,0-0.6c0-1.3,0.8-4,1.6-6.1H23l0.1,0.4
			c0.6,1.7,1.4,4.3,1.4,5.7c0,0.2,0,0.4,0,0.6H12.3L12.3,12.9z"/>
	</g>
</g>
</svg>
