<?xml version="1.0" encoding="utf-8"?>
<!-- Generator: Adobe Illustrator 24.3.0, SVG Export Plug-In . SVG Version: 6.00 Build 0)  -->
<svg version="1.1" id="Слой_1" xmlns="http://www.w3.org/2000/svg" xmlns:xlink="http://www.w3.org/1999/xlink" x="0px" y="0px"
	 viewBox="0 0 36.8 36.8" style="enable-background:new 0 0 36.8 36.8;" xml:space="preserve">
<style type="text/css">
	.st0{fill:#4D6BA2;stroke:#4D43A2;stroke-width:0.85;stroke-miterlimit:10;}
	.st1{fill:#FFFFFF;}
</style>
<g id="Слой_1_1_">
	<circle class="st0" cx="18.4" cy="18.4" r="18"/>
</g>
<g id="Слой_3">
	<path class="st1" d="M10,16.1c-3.1,0-5.6,2.5-5.6,5.6s2.5,5.6,5.6,5.6s5.6-2.5,5.6-5.6S13.1,16.1,10,16.1L10,16.1z M10,25.4
		c-2.1,0-3.7-1.7-3.7-3.7c0-2.1,1.7-3.7,3.7-3.7s3.7,1.7,3.7,3.7c0,0,0,0,0,0C13.8,23.8,12.1,25.4,10,25.4z M26.8,16.1
		c-0.6,0-1.1,0.1-1.7,0.3l-2.5-5H25v0.9c-0.1,0.5,0.3,1,0.8,1c0.5,0.1,1-0.3,1-0.8c0-0.1,0-0.1,0-0.2v-1.9c0-0.5-0.4-0.9-0.9-0.9
		h-4.6h-0.1c-0.2,0-0.3,0-0.5,0.1c-0.4,0.3-0.6,0.8-0.3,1.3l1.5,2.9l-3.4,6l-4.2-8.4h0.5c0.5-0.1,0.9-0.5,0.8-1
		c0-0.4-0.4-0.8-0.8-0.8H11c-0.5,0.1-0.9,0.5-0.8,1c0,0.4,0.4,0.8,0.8,0.8h1.3l5.2,10.4c0,0.3,0.2,0.5,0.4,0.6c0,0,0.1,0,0.1,0
		c0.3,0.2,0.6,0.2,0.8,0c0.2-0.1,0.3-0.3,0.4-0.6l3.6-6.2l0.7,1.4c-2.5,1.8-3.1,5.3-1.3,7.8s5.3,3.1,7.8,1.3
		c2.5-1.8,3.1-5.3,1.3-7.8C30.3,16.9,28.6,16.1,26.8,16.1L26.8,16.1z M26,18.1c0.3-0.1,0.5-0.1,0.8-0.1c2.1,0,3.8,1.6,3.8,3.7
		s-1.6,3.8-3.7,3.8c-2.1,0-3.8-1.6-3.8-3.7c0-1.1,0.5-2.2,1.3-2.9C25.1,18.3,26,18.1,26,18.1z"/>
</g>
</svg>
