<?xml version="1.0" encoding="utf-8"?>
<!-- Generator: Adobe Illustrator 24.3.0, SVG Export Plug-In . SVG Version: 6.00 Build 0)  -->
<svg version="1.1" id="Слой_1" xmlns="http://www.w3.org/2000/svg" xmlns:xlink="http://www.w3.org/1999/xlink" x="0px" y="0px"
	 viewBox="0 0 36.8 36.8" style="enable-background:new 0 0 36.8 36.8;" xml:space="preserve">
<style type="text/css">
	.st0{fill:#C05EFF;stroke:#823DA6;stroke-width:0.85;stroke-miterlimit:10;}
	.st1{fill:#FFFFFF;}
</style>
<g id="Слой_1_1_">
	<circle class="st0" cx="18.4" cy="18.4" r="18"/>
</g>
<g>
	<g>
		<g>
			<path class="st1" d="M15.2,11.2c-0.6-0.6-0.8-0.8-0.8-1.5c0-0.7,0.3-0.9,0.8-1.5c0.5-0.5,0.5-1.2,0-1.6c-0.5-0.5-1.2-0.5-1.6,0
				c-0.6,0.6-1.5,1.5-1.5,3.1c0,1.6,0.9,2.5,1.5,3.1c0.6,0.6,0.8,0.8,0.8,1.5c0,0.6,0.5,1.2,1.2,1.2c0.6,0,1.2-0.5,1.2-1.2
				C16.7,12.7,15.9,11.8,15.2,11.2z"/>
		</g>
	</g>
	<g>
		<g>
			<path class="st1" d="M20.6,11.2c-0.6-0.6-0.8-0.8-0.8-1.5c0-0.7,0.3-0.9,0.8-1.5c0.5-0.5,0.5-1.2,0-1.6c-0.5-0.5-1.2-0.5-1.6,0
				c-0.6,0.6-1.5,1.5-1.5,3.1c0,1.6,0.9,2.5,1.5,3.1c0.6,0.6,0.8,0.8,0.8,1.5c0,0.6,0.5,1.2,1.2,1.2c0.6,0,1.2-0.5,1.2-1.2
				C22.1,12.7,21.3,11.8,20.6,11.2z"/>
		</g>
	</g>
	<g>
		<g>
			<path class="st1" d="M25.3,26.3h1.1l0,0c2-0.1,3.8-1.5,4.2-3.5c0.5-2.7-1.6-5.1-4.2-5.1h-1.5H9.4c-0.6,0-1.2,0.5-1.2,1.2v3.9
				c0,2.4,1,4.6,2.5,6.2c0.3,0.3,0.6,0.4,1,0.4l10.9,0c0.3,0,0.7-0.1,0.9-0.4C24.2,28.3,24.9,27.4,25.3,26.3z M26,22.8v-2.7h0.4
				c1.1,0,1.9,0.9,1.9,1.9S27.5,24,26.4,24c0,0,0,0,0,0h-0.5C26,23.6,26,23.2,26,22.8z"/>
		</g>
	</g>
</g>
</svg>
