<?xml version="1.0" encoding="utf-8"?>
<!-- Generator: Adobe Illustrator 24.3.0, SVG Export Plug-In . SVG Version: 6.00 Build 0)  -->
<svg version="1.1" id="Слой_1" xmlns="http://www.w3.org/2000/svg" xmlns:xlink="http://www.w3.org/1999/xlink" x="0px" y="0px"
	 viewBox="0 0 36.8 36.8" style="enable-background:new 0 0 36.8 36.8;" xml:space="preserve">
<style type="text/css">
	.st0{fill:#FFBB43;stroke:#F28900;stroke-width:0.85;stroke-miterlimit:10;}
	.st1{fill:#FFFFFF;}
</style>
<g id="Слой_1_1_">
	<circle class="st0" cx="18.4" cy="18.4" r="18"/>
</g>
<g>
	<path class="st1" d="M12.2,16.5l-7.1,5c-0.4,0.3-0.4,0.8-0.1,1.1l5.4,5.4l2.8-4.2c0.2-0.3,0.7-0.4,1-0.2c0.3,0.2,0.4,0.7,0.2,1
		l-3,4.5l1.6,1.6c0.3,0.3,0.9,0.3,1.1-0.1l4.7-7.3L12.2,16.5z"/>
	<path class="st1" d="M29.9,6c-0.3-0.3-0.8-0.3-1,0l-9.7,9.7c-1.7-1.3-4.1-1.3-5.7,0l6.6,6.6c1.2-1.6,1.3-3.8,0.2-5.4L29.9,7
		C30.2,6.7,30.2,6.3,29.9,6z"/>
</g>
</svg>
