<?xml version="1.0" encoding="utf-8"?>
<!-- Generator: Adobe Illustrator 24.3.0, SVG Export Plug-In . SVG Version: 6.00 Build 0)  -->
<svg version="1.1" id="Слой_1" xmlns="http://www.w3.org/2000/svg" xmlns:xlink="http://www.w3.org/1999/xlink" x="0px" y="0px"
	 viewBox="0 0 36.8 36.8" style="enable-background:new 0 0 36.8 36.8;" xml:space="preserve">
<style type="text/css">
	.st0{fill:#C05EFF;stroke:#823DA6;stroke-width:0.85;stroke-miterlimit:10;}
	.st1{fill:#FFFFFF;}
</style>
<g id="Слой_1_1_">
	<circle class="st0" cx="18.4" cy="18.4" r="18"/>
</g>
<g>
	<g>
		<g>
			<path class="st1" d="M31.1,18.8c-0.3-0.5-0.9-0.6-1.3-0.3l-3.2,1.9l-0.8,0.5v4.5l0.8,0.5c0,0,0,0,0.1,0l3.2,1.9
				c0.1,0.1,0.3,0.2,0.5,0.2c0.5,0,1-0.4,1-1v-4v-3.8C31.2,19.1,31.2,18.9,31.1,18.8z"/>
			<path class="st1" d="M12.1,17.3c2.5,0,4.6-2,4.6-4.6s-2-4.6-4.6-4.6s-4.6,2-4.6,4.6C7.5,15.3,9.6,17.3,12.1,17.3z M12.1,10.8
				c1.1,0,1.9,0.9,1.9,1.9c0,1.1-0.9,1.9-1.9,1.9s-1.9-0.9-1.9-1.9C10.2,11.7,11.1,10.8,12.1,10.8z"/>
			<path class="st1" d="M23.7,17.6c-0.7,0.4-1.6,0.6-2.4,0.6c-1.1,0-2.1-0.3-3-0.9h-3.2c-0.9,0.6-1.9,0.9-3,0.9
				c-0.9,0-1.7-0.2-2.4-0.6C9,18,8.6,18.7,8.6,19.5v6.9c0,1.3,1.1,2.3,2.3,2.3h11.7c1.3,0,2.3-1.1,2.3-2.3v-6.9
				C24.8,18.7,24.4,17.9,23.7,17.6z"/>
			<path class="st1" d="M21.3,17.3c2.5,0,4.6-2,4.6-4.6s-2-4.6-4.6-4.6s-4.6,2-4.6,4.6C16.7,15.3,18.8,17.3,21.3,17.3z M21.3,10.8
				c1.1,0,1.9,0.9,1.9,1.9c0,1.1-0.9,1.9-1.9,1.9s-1.9-0.9-1.9-1.9S20.2,10.8,21.3,10.8z"/>
		</g>
	</g>
</g>
</svg>
