<svg id="Слой_1" data-name="Слой 1" xmlns="http://www.w3.org/2000/svg" viewBox="0 0 150.15 29.35"><defs><style>.cls-1{fill:#ea5456;}.cls-2{fill:#f7aa5c;}.cls-3{fill:#f8eb52;}.cls-4{fill:#85c387;}.cls-5{fill:#65a9dd;}.cls-6{fill:#1d1d1b;}</style></defs><rect class="cls-1" x="2.1" width="28.35" height="14.17"/><rect class="cls-2" x="30.45" width="28.35" height="14.17"/><rect class="cls-3" x="58.79" width="28.35" height="14.17"/><rect class="cls-4" x="87.14" width="28.35" height="14.17"/><rect class="cls-5" x="115.49" width="28.35" height="14.17"/><path class="cls-6" d="M17.73,35.05c0,2.84-.52,4.17-2,4.17s-2-1.48-2-4.18c0-2.94.7-4,2-4S17.73,32.29,17.73,35.05Zm-3.31,0c0,2.37.28,3.6,1.31,3.6S17,37.47,17,35.05s-.34-3.37-1.28-3.37S14.42,32.5,14.42,35Z" transform="translate(-13.73 -11.15)"/><path class="cls-6" d="M42.9,35.05c0,2.84-.52,4.17-2,4.17s-2-1.48-2-4.18c0-2.94.71-4,2-4S42.9,32.29,42.9,35.05Zm-3.31,0c0,2.37.28,3.6,1.31,3.6s1.31-1.16,1.31-3.58-.35-3.37-1.29-3.37S39.59,32.5,39.59,35Z" transform="translate(-13.73 -11.15)"/><path class="cls-6" d="M43.31,40.5A9.2,9.2,0,0,0,44,37.69h.66a7.38,7.38,0,0,1-.73,2.81Z" transform="translate(-13.73 -11.15)"/><path class="cls-6" d="M48.45,32.77c0-.1-.08-1.1-1-1.1-1.36,0-1.39,2.13-1.42,3.18a1.56,1.56,0,0,1,1.49-.9c1.25,0,1.81,1,1.81,2.52s-.5,2.75-2,2.75c-1.68,0-2-1.65-2-3.93,0-2.51.49-4.21,2.14-4.21a1.63,1.63,0,0,1,1.65,1.69Zm.15,3.75c0-1.18-.34-2-1.24-2A1.42,1.42,0,0,0,46,36.13c0,1.07.23,2.51,1.33,2.51C48.09,38.64,48.6,38,48.6,36.52Z" transform="translate(-13.73 -11.15)"/><path class="cls-6" d="M69.84,39.11V32a3.42,3.42,0,0,1-1.22.46V31.9a3.82,3.82,0,0,0,1.43-.75h.46v8Z" transform="translate(-13.73 -11.15)"/><path class="cls-6" d="M71.34,40.5A8.92,8.92,0,0,0,72,37.69h.66a7.2,7.2,0,0,1-.73,2.81Z" transform="translate(-13.73 -11.15)"/><path class="cls-6" d="M73.45,39.11v-.06c0-.84.55-2,1.8-3.34,1-1.14,1.39-1.59,1.39-2.54,0-.76-.23-1.5-1.15-1.5s-1.19.61-1.23,1.61h-.68c0-1.13.56-2.2,1.92-2.2s1.84,1,1.84,2.08-.42,1.69-1.48,2.81a6.31,6.31,0,0,0-1.63,2.53h3.33l-.1.61Z" transform="translate(-13.73 -11.15)"/><path class="cls-6" d="M98,39.11V32a3.44,3.44,0,0,1-1.21.46V31.9a3.77,3.77,0,0,0,1.42-.75h.47v8Z" transform="translate(-13.73 -11.15)"/><path class="cls-6" d="M99.52,40.5a8.91,8.91,0,0,0,.63-2.81h.66a7.2,7.2,0,0,1-.73,2.81Z" transform="translate(-13.73 -11.15)"/><path class="cls-6" d="M101.69,36.9a2.08,2.08,0,0,1,1-2.07,1.82,1.82,0,0,1-.83-1.71,1.82,1.82,0,0,1,1.81-2,1.72,1.72,0,0,1,1.73,2c0,1.09-.42,1.58-.86,1.77.59.25,1,.88,1,2.09s-.63,2.31-2,2.31S101.69,38.17,101.69,36.9Zm3.26,0c0-1.15-.38-1.76-1.29-1.76s-1.28.75-1.28,1.72.37,1.76,1.27,1.76S105,37.94,105,36.91Zm-2.38-3.84c0,.84.27,1.48,1.11,1.48s1.1-.42,1.1-1.47c0-.73-.29-1.42-1.11-1.42S102.57,32.38,102.57,33.07Z" transform="translate(-13.73 -11.15)"/><path class="cls-6" d="M124.13,39.11v-.06a5.61,5.61,0,0,1,1.79-3.34c1-1.14,1.4-1.59,1.4-2.54,0-.76-.23-1.5-1.15-1.5s-1.19.61-1.24,1.61h-.67c0-1.13.56-2.2,1.91-2.2s1.84,1,1.84,2.08-.41,1.69-1.47,2.81a6.31,6.31,0,0,0-1.63,2.53h3.33l-.11.61Z" transform="translate(-13.73 -11.15)"/><path class="cls-6" d="M128.67,40.5a9.2,9.2,0,0,0,.64-2.81H130a7.38,7.38,0,0,1-.73,2.81Z" transform="translate(-13.73 -11.15)"/><path class="cls-6" d="M133.4,39.11V36.92h-2.87v-.59l2.67-5.15h.86v5.15h.8l-.08.59h-.72v2.19Zm0-5.19c0-.64,0-1.49,0-2.07-.41.95-1.55,3.17-2.21,4.48h2.18Z" transform="translate(-13.73 -11.15)"/><path class="cls-6" d="M153.22,39.11v-.06a5.63,5.63,0,0,1,1.8-3.34c1-1.14,1.39-1.59,1.39-2.54,0-.76-.23-1.5-1.15-1.5s-1.19.61-1.23,1.61h-.68c0-1.13.56-2.2,1.92-2.2s1.84,1,1.84,2.08-.42,1.69-1.47,2.81A6.09,6.09,0,0,0,154,38.5h3.32l-.1.61Z" transform="translate(-13.73 -11.15)"/><path class="cls-6" d="M157.76,40.5a8.92,8.92,0,0,0,.64-2.81h.66a7.2,7.2,0,0,1-.73,2.81Z" transform="translate(-13.73 -11.15)"/><path class="cls-6" d="M159.94,36.9a2.08,2.08,0,0,1,1-2.07,1.8,1.8,0,0,1-.84-1.71,1.82,1.82,0,0,1,1.82-2,1.72,1.72,0,0,1,1.73,2c0,1.09-.42,1.58-.86,1.77.59.25,1,.88,1,2.09s-.64,2.31-2,2.31S159.94,38.17,159.94,36.9Zm3.26,0c0-1.15-.38-1.76-1.29-1.76s-1.29.75-1.29,1.72.37,1.76,1.28,1.76S163.2,37.94,163.2,36.91Zm-2.38-3.84c0,.84.27,1.48,1.11,1.48s1.1-.42,1.1-1.47c0-.73-.29-1.42-1.11-1.42S160.82,32.38,160.82,33.07Z" transform="translate(-13.73 -11.15)"/></svg>