<?xml version="1.0" encoding="utf-8"?>
<!-- Generator: Adobe Illustrator 24.3.0, SVG Export Plug-In . SVG Version: 6.00 Build 0)  -->
<svg version="1.1" id="Слой_1" xmlns="http://www.w3.org/2000/svg" xmlns:xlink="http://www.w3.org/1999/xlink" x="0px" y="0px"
	 viewBox="0 0 36.8 36.8" style="enable-background:new 0 0 36.8 36.8;" xml:space="preserve">
<style type="text/css">
	.st0{fill:#C05EFF;stroke:#823DA6;stroke-width:0.85;stroke-miterlimit:10;}
	.st1{fill:#FFFFFF;}
</style>
<g id="Слой_1_1_">
	<circle class="st0" cx="18.4" cy="18.4" r="18"/>
</g>
<g id="Слой_2_1_">
	<path class="st1" d="M28.4,20.1c-0.2-0.2-0.4-0.2-0.6-0.1c-0.2,0.1-0.2,0.4-0.1,0.6c0,0,0,0,0,0c0.4,0.6,0.7,1.3,0.7,2
		c0,0.2,0.2,0.4,0.4,0.4c0.2,0,0.4-0.2,0.4-0.4c0,0,0,0,0,0C29.2,21.7,28.9,20.8,28.4,20.1z"/>
	<path class="st1" d="M27.5,16.2c1.9-1.3,2.4-3.9,1.1-5.8s-3.9-2.4-5.8-1.1s-2.4,3.9-1.1,5.8c0.3,0.5,0.7,0.8,1.1,1.1
		c-0.8,0.3-1.6,0.7-2.2,1.3c-1.2-1.1-3.1-1.1-4.3,0c-0.7-0.5-1.4-1-2.2-1.2c1.9-1.3,2.4-3.9,1.1-5.8s-3.9-2.4-5.8-1.1
		S6.9,13.1,8.2,15c0.3,0.5,0.7,0.8,1.1,1.1c-2.9,1-4.9,3.7-4.9,6.9l0,0c0,0.9,0.5,2.1,2.8,3.2c2,0.9,4.2,1.5,6.5,1.8
		c1.6,0.2,3.2,0.3,4.8,0.3c1.6,0,3.2-0.1,4.8-0.3c2.2-0.2,4.4-0.8,6.5-1.8c2.3-1.1,2.8-2.4,2.8-3.2C32.4,19.9,30.4,17.2,27.5,16.2z
		 M22.7,12.7c0-1.4,1.1-2.5,2.5-2.5s2.5,1.1,2.5,2.5s-1.1,2.5-2.5,2.5l0,0C23.8,15.2,22.7,14.1,22.7,12.7
		C22.7,12.7,22.7,12.7,22.7,12.7z M16.8,18.5c0.6-0.9,1.9-1.1,2.8-0.5c0.2,0.1,0.4,0.3,0.5,0.5l0,0c0.2,0.3,0.4,0.7,0.4,1.1
		c0,1.1-0.9,2-2,2s-2-0.9-2-2C16.4,19.2,16.6,18.8,16.8,18.5z M9.2,12.7c0-1.4,1.1-2.5,2.5-2.5c1.4,0,2.5,1.1,2.5,2.5
		c0,1.4-1.1,2.5-2.5,2.5c0,0,0,0,0,0C10.3,15.2,9.2,14.1,9.2,12.7C9.2,12.7,9.2,12.7,9.2,12.7z M12.7,25.9c-1.5-0.2-3-0.6-4.4-1.3
		c-1.1-0.5-1.7-1.2-1.7-1.8l0,0c0-2.7,2.2-4.9,4.9-4.9c1.2,0,2.3,0.4,3.2,1.1c-0.5,1-0.2,2.3,0.6,3C13.8,22.7,12.8,24.2,12.7,25.9z
		 M21.7,26.6c-2.2,0.3-4.4,0.3-6.7,0v-0.1c0-1.8,1.5-3.3,3.3-3.3c1.8,0,3.3,1.5,3.3,3.3V26.6z M28.5,24.6c-1.4,0.6-2.9,1.1-4.4,1.3
		c0-1.7-1-3.2-2.6-3.9c0.9-0.7,1.2-2,0.6-3c2.1-1.7,5.2-1.4,7,0.7c0.7,0.9,1.1,2,1.1,3.2C30.2,23.4,29.6,24.1,28.5,24.6L28.5,24.6z"
		/>
	<path class="st1" d="M26.6,19.1c-0.2,0-0.4,0.2-0.4,0.4c0,0.2,0.2,0.4,0.4,0.4c0.2,0,0.4-0.2,0.4-0.4
		C27.1,19.3,26.9,19.1,26.6,19.1z"/>
</g>
</svg>
