<svg id="Слой_1" data-name="Слой 1" xmlns="http://www.w3.org/2000/svg" viewBox="0 0 36.85 36.85"><defs><style>.cls-1{fill:#f28d6d;stroke:#d7636d;stroke-miterlimit:10;stroke-width:0.85px;}.cls-2{fill:#fff;}</style></defs><g id="Слой_1-2" data-name="Слой 1"><circle class="cls-1" cx="18.43" cy="18.43" r="18"/></g><g id="Alphabet_Blocks" data-name="Alphabet Blocks"><path class="cls-2" d="M17.51,12h1.83l-.92-1.84Z" transform="translate(-0.01 -0.01)"/><path class="cls-2" d="M23.73,6.05H13.12a.67.67,0,0,0-.67.67v9.2a.79.79,0,0,0,.8.79H23.56a.84.84,0,0,0,.84-.84V6.72A.67.67,0,0,0,23.73,6.05Zm-2.35,8.56a.66.66,0,0,1-.3.07.64.64,0,0,1-.59-.37l-.48-1H16.84l-.48,1a.64.64,0,0,1-.59.37.66.66,0,0,1-.59-1l2.65-5.31a.71.71,0,0,1,.6-.36.69.69,0,0,1,.59.36l2.65,5.31a.66.66,0,0,1-.29.89Z" transform="translate(-0.01 -0.01)"/><path class="cls-2" d="M13.78,22a.67.67,0,0,0-.66-.66h-2v1.33h2A.67.67,0,0,0,13.78,22Z" transform="translate(-0.01 -0.01)"/><path class="cls-2" d="M17.05,18H7.77a.67.67,0,0,0-.67.67V28a.66.66,0,0,0,.67.66h9.28a.7.7,0,0,0,.71-.7V18.75A.71.71,0,0,0,17.05,18Zm-4,8.63H10.46A.67.67,0,0,1,9.8,26V20.7a.67.67,0,0,1,.66-.67h2.62a2,2,0,0,1,2,1.82,2,2,0,0,1-.51,1.5h0a2,2,0,0,1,.51,1.5A2,2,0,0,1,13.08,26.67Z" transform="translate(-0.01 -0.01)"/><path class="cls-2" d="M13.12,24h-2v1.33h2a.67.67,0,0,0,0-1.33Z" transform="translate(-0.01 -0.01)"/><path class="cls-2" d="M29.13,18H19.8a.71.71,0,0,0-.71.71v9.36a.59.59,0,0,0,.6.59h9.44a.62.62,0,0,0,.62-.62V18.66A.62.62,0,0,0,29.13,18Zm-5.27,7.23a2,2,0,0,0,1.94-.51.66.66,0,0,1,.94.94,3.33,3.33,0,1,1,0-4.69.65.65,0,0,1,0,.93.66.66,0,0,1-.94,0,2,2,0,0,0-1.4-.58A2,2,0,0,0,22.5,24,1.9,1.9,0,0,0,23.86,25.27Z" transform="translate(-0.01 -0.01)"/></g></svg>