<svg xmlns="http://www.w3.org/2000/svg" viewBox="0 0 36.85 36.85"><defs><style>.cls-1{fill:#4d6ba2;stroke:#4d43a2;stroke-miterlimit:10;stroke-width:0.85px;}.cls-2{fill:#fff;}</style></defs><g id="Слой_1" data-name="Слой 1"><circle class="cls-1" cx="18.43" cy="18.43" r="18"/></g><g id="Слой_3" data-name="Слой 3"><path class="cls-2" d="M11.29,19.08V16.33a.46.46,0,1,0,0-.91A2.3,2.3,0,0,0,9,17.71v.91A1.38,1.38,0,0,0,10.38,20h.91a.46.46,0,0,0,0-.92Z" transform="translate(-1.57 -1.57)"/><path class="cls-2" d="M28.71,15.42a.46.46,0,1,0,0,.91v2.75a.46.46,0,0,0,0,.92h.91A1.38,1.38,0,0,0,31,18.62v-.91A2.3,2.3,0,0,0,28.71,15.42Z" transform="translate(-1.57 -1.57)"/><path class="cls-2" d="M16.79,28.25a.47.47,0,0,0-.46.46H13.58a.46.46,0,1,0-.91,0v.91A1.37,1.37,0,0,0,14,31h1.84a1.38,1.38,0,0,0,1.37-1.38v-.91A.47.47,0,0,0,16.79,28.25Z" transform="translate(-1.57 -1.57)"/><path class="cls-2" d="M26.88,28.25a.46.46,0,0,0-.46.46H23.67a.46.46,0,0,0-.92,0v.91A1.38,1.38,0,0,0,24.12,31H26a1.37,1.37,0,0,0,1.37-1.38v-.91A.46.46,0,0,0,26.88,28.25Z" transform="translate(-1.57 -1.57)"/><path class="cls-2" d="M26.88,9H13.13a2.3,2.3,0,0,0-2.3,2.29V26.88a2.3,2.3,0,0,0,2.3,2.29H26.88a2.3,2.3,0,0,0,2.29-2.29V11.29A2.3,2.3,0,0,0,26.88,9ZM15,10.83H25a1.38,1.38,0,1,1,0,2.75H15a1.38,1.38,0,1,1,0-2.75Zm0,15.59a1.38,1.38,0,1,1,0-2.75,1.38,1.38,0,0,1,0,2.75Zm10.08,0A1.38,1.38,0,1,1,26.42,25,1.37,1.37,0,0,1,25,26.42Zm2.29-6A1.37,1.37,0,0,1,26,21.83H14a1.37,1.37,0,0,1-1.37-1.37V15.88A1.37,1.37,0,0,1,14,14.5H26a1.37,1.37,0,0,1,1.37,1.38v4.58Z" transform="translate(-1.57 -1.57)"/></g></svg>