<svg xmlns="http://www.w3.org/2000/svg" viewBox="0 0 36.85 36.85"><defs><style>.cls-1{fill:#70c4d4;stroke:#2f87a9;stroke-miterlimit:10;stroke-width:0.85px;}.cls-2{fill:#fff;}</style></defs><g id="Слой_1" data-name="Слой 1"><circle class="cls-1" cx="18.43" cy="18.43" r="18"/></g><g id="Слой_3" data-name="Слой 3"><path class="cls-2" d="M9.49,9.46a1.58,1.58,0,0,0-.05,2.14,1.53,1.53,0,0,0,.94.5.9.9,0,0,1,.51,1.52h0a1.55,1.55,0,0,0-.46,1.11,1.51,1.51,0,0,0,.46,1.1l.73.74,5-5-.73-.74a1.58,1.58,0,0,0-2.21,0,.88.88,0,0,1-.92.22.9.9,0,0,1-.61-.73,1.55,1.55,0,0,0-.44-.87A1.51,1.51,0,0,0,10.6,9h0a1.55,1.55,0,0,0-1.11.46Z" transform="translate(-1.57 -1.57)"/><path class="cls-2" d="M10.83,19.21a.43.43,0,0,0,0,.61l.89.9a.44.44,0,0,0,.62,0l8.42-8.43a.43.43,0,0,0,0-.61l-.89-.9a.44.44,0,0,0-.62,0Z" transform="translate(-1.57 -1.57)"/><path class="cls-2" d="M14.5,20.4h0a19.37,19.37,0,0,0,4,5.82l4,4a2.81,2.81,0,0,0,4,0l3.69-3.69a2.82,2.82,0,0,0,0-4l-3.95-3.95a19.37,19.37,0,0,0-5.82-4Zm9.19,4.87,1.53-1.53a.65.65,0,0,1,.92.92l-1.53,1.53a.63.63,0,0,1-.46.19.62.62,0,0,1-.46-.19A.64.64,0,0,1,23.69,25.27Zm-2.37-1.45a.66.66,0,0,1,0-.92l1.53-1.53a.67.67,0,0,1,.93,0,.66.66,0,0,1,0,.92l-1.54,1.53a.63.63,0,0,1-.46.2.66.66,0,0,1-.46-.2ZM19,21.46a.64.64,0,0,1,0-.92L20.49,19a.66.66,0,0,1,.92,0,.67.67,0,0,1,0,.93l-1.53,1.53a.65.65,0,0,1-.46.19.62.62,0,0,1-.46-.19Z" transform="translate(-1.57 -1.57)"/></g></svg>