<?xml version="1.0" encoding="utf-8"?>
<!-- Generator: Adobe Illustrator 24.3.0, SVG Export Plug-In . SVG Version: 6.00 Build 0)  -->
<svg version="1.1" id="Слой_1" xmlns="http://www.w3.org/2000/svg" xmlns:xlink="http://www.w3.org/1999/xlink" x="0px" y="0px"
	 viewBox="0 0 36.8 36.8" style="enable-background:new 0 0 36.8 36.8;" xml:space="preserve">
<style type="text/css">
	.st0{fill:#70C4D4;stroke:#2F87A9;stroke-width:0.85;stroke-miterlimit:10;}
	.st1{fill:#70C4D4;}
	.st2{fill:#FFFFFF;}
</style>
<g id="Слой_1_1_">
	<circle class="st0" cx="18.4" cy="18.4" r="18"/>
</g>
<g id="Слой_2_1_">
	<path class="st1" d="M14.7,14.2l0.2-0.1l0.2-0.1l0.2-0.1c0.1,0,0.1-0.1,0.1-0.2c0-0.1,0.1-0.1,0.1-0.2c0-0.1,0.1-0.1,0.1-0.2
		c0-0.1,0-0.1,0-0.2c0-0.1,0-0.1,0-0.2c0-0.1,0-0.1-0.1-0.2c0-0.1-0.1-0.1-0.1-0.2c0-0.1-0.1-0.1-0.1-0.2l-0.2-0.1L15,12.1l-0.2-0.1
		c-0.1,0-0.3,0-0.4,0l-0.2,0.1c-0.1,0-0.1,0.1-0.2,0.1c-0.1,0.1-0.2,0.2-0.3,0.3c0,0.1-0.1,0.1-0.1,0.2l-0.1,0.2c0,0.1,0,0.1,0,0.2
		c0,0.1,0,0.1,0,0.2l0.1,0.2c0,0.1,0.1,0.1,0.1,0.2c0.1,0.1,0.2,0.2,0.3,0.3l0.2,0.1l0.2,0.1h0.2L14.7,14.2z"/>
	<path class="st1" d="M23.4,12.7c0-0.1-0.1-0.1-0.1-0.2c-0.1-0.1-0.2-0.2-0.3-0.3c-0.1,0-0.1-0.1-0.2-0.1l-0.2-0.1
		c-0.1,0-0.3,0-0.4,0l-0.2,0.1l-0.2,0.1l-0.2,0.1c0,0-0.1,0.1-0.1,0.2c0,0.1-0.1,0.1-0.1,0.2c-0.1,0.1-0.1,0.3-0.1,0.4
		c0,0.3,0.1,0.6,0.3,0.8l0.2,0.1l0.2,0.1l0.2,0.1h0.2h0.2l0.2-0.1l0.2-0.1c0.1,0,0.1-0.1,0.2-0.1c0.2-0.2,0.3-0.5,0.3-0.8
		c0-0.1,0-0.1,0-0.2C23.4,12.8,23.4,12.8,23.4,12.7z"/>
	<path class="st1" d="M21.7,16.7c-2,1.4-4.6,1.4-6.6,0c-0.5-0.3-1.2-0.2-1.5,0.3c-0.3,0.5-0.2,1.2,0.3,1.5c0,0,0,0,0,0
		c2.7,1.9,6.3,1.9,9.1,0c0.5-0.3,0.6-1,0.3-1.5c0,0,0,0,0,0C22.9,16.5,22.2,16.4,21.7,16.7z"/>
</g>
<g>
	<g>
		<path class="st2" d="M23.2,6.6c-1.9,0-3.6,0.7-4.9,2l-9.6,9.6c-1.3,1.3-2,3.1-2,4.9c0,3.8,3.1,7,7,7c1.9,0,3.6-0.7,4.9-2l9.6-9.6
			c1.3-1.3,2-3.1,2-4.9C30.2,9.8,27.1,6.6,23.2,6.6z M26.6,17l-4.4,4.4l-6.8-6.8l4.4-4.4c0.9-0.9,2.1-1.4,3.4-1.4
			c2.7,0,4.8,2.2,4.8,4.8C28.1,14.9,27.6,16.1,26.6,17z"/>
	</g>
</g>
</svg>
