<svg id="Слой_1" data-name="Слой 1" xmlns="http://www.w3.org/2000/svg" viewBox="0 0 152.04 28.88"><defs><style>.cls-1{fill:#ea5456;}.cls-2{fill:#f7aa5c;}.cls-3{fill:#f8eb52;}.cls-4{fill:#85c387;}.cls-5{fill:#65a9dd;}.cls-6{fill:#1d1d1b;}</style></defs><rect class="cls-1" x="5.48" width="28.35" height="14.17"/><rect class="cls-2" x="33.83" width="28.35" height="14.17"/><rect class="cls-3" x="62.17" width="28.35" height="14.17"/><rect class="cls-4" x="90.52" width="28.35" height="14.17"/><rect class="cls-5" x="118.87" width="28.35" height="14.17"/><path class="cls-6" d="M14.34,34.58c0,2.84-.51,4.17-2,4.17s-2-1.48-2-4.18c0-2.94.71-4,2-4S14.34,31.82,14.34,34.58Zm-3.3,0c0,2.37.28,3.6,1.31,3.6s1.3-1.16,1.3-3.58-.34-3.37-1.28-3.37S11,32,11,34.56Z" transform="translate(-10.34 -11.15)"/><path class="cls-6" d="M14.75,40a8.92,8.92,0,0,0,.64-2.81h.66A7.2,7.2,0,0,1,15.32,40Z" transform="translate(-10.34 -11.15)"/><path class="cls-6" d="M17.38,38.64V31.53a3.42,3.42,0,0,1-1.22.46v-.56a3.69,3.69,0,0,0,1.42-.75h.47v8Z" transform="translate(-10.34 -11.15)"/><path class="cls-6" d="M43.52,34.58c0,2.84-.52,4.17-2,4.17s-2-1.48-2-4.18c0-2.94.7-4,2-4S43.52,31.82,43.52,34.58Zm-3.31,0c0,2.37.28,3.6,1.31,3.6s1.3-1.16,1.3-3.58-.34-3.37-1.28-3.37S40.21,32,40.21,34.56Z" transform="translate(-10.34 -11.15)"/><path class="cls-6" d="M43.92,40a8.65,8.65,0,0,0,.64-2.81h.66A7.2,7.2,0,0,1,44.49,40Z" transform="translate(-10.34 -11.15)"/><path class="cls-6" d="M48.65,38.64V36.45H45.78v-.59l2.67-5.15h.87v5.15h.79l-.08.59h-.71v2.19Zm0-5.19c0-.64,0-1.49,0-2.07-.4.95-1.54,3.16-2.2,4.48h2.17Z" transform="translate(-10.34 -11.15)"/><path class="cls-6" d="M71.69,34.58c0,2.84-.52,4.17-2,4.17s-2-1.48-2-4.18c0-2.94.71-4,2-4S71.69,31.82,71.69,34.58Zm-3.31,0c0,2.37.29,3.6,1.31,3.6S71,37,71,34.58s-.35-3.37-1.29-3.37S68.38,32,68.38,34.56Z" transform="translate(-10.34 -11.15)"/><path class="cls-6" d="M72.1,40a9.2,9.2,0,0,0,.64-2.81h.66A7.38,7.38,0,0,1,72.67,40Z" transform="translate(-10.34 -11.15)"/><path class="cls-6" d="M78.13,30.71v.56a23.06,23.06,0,0,0-2.38,7.37H75a22.61,22.61,0,0,1,2.41-7.31H74.31v-.62Z" transform="translate(-10.34 -11.15)"/><path class="cls-6" d="M97.63,38.64V31.53a3.44,3.44,0,0,1-1.21.46v-.56a3.77,3.77,0,0,0,1.42-.75h.46v8Z" transform="translate(-10.34 -11.15)"/><path class="cls-6" d="M99.13,40a8.65,8.65,0,0,0,.64-2.81h.66A7.2,7.2,0,0,1,99.7,40Z" transform="translate(-10.34 -11.15)"/><path class="cls-6" d="M105.27,34.58c0,2.84-.52,4.17-2,4.17s-2-1.48-2-4.18c0-2.94.7-4,2-4S105.27,31.82,105.27,34.58Zm-3.31,0c0,2.37.28,3.6,1.31,3.6s1.3-1.16,1.3-3.58-.34-3.37-1.28-3.37S102,32,102,34.56Z" transform="translate(-10.34 -11.15)"/><path class="cls-6" d="M125.8,38.64V31.53a3.44,3.44,0,0,1-1.21.46v-.56a3.77,3.77,0,0,0,1.42-.75h.47v8Z" transform="translate(-10.34 -11.15)"/><path class="cls-6" d="M127.31,40a9.2,9.2,0,0,0,.64-2.81h.66a7.38,7.38,0,0,1-.73,2.81Z" transform="translate(-10.34 -11.15)"/><path class="cls-6" d="M129.69,32.52a1.76,1.76,0,0,1,1.8-1.91c1.28,0,1.72.89,1.72,2a1.62,1.62,0,0,1-1,1.72h0c.73.25,1.21.82,1.21,2.06s-.46,2.39-2,2.39a1.85,1.85,0,0,1-1.92-2h.66a1.3,1.3,0,0,0,1.28,1.42c1.07,0,1.31-1,1.31-1.77,0-1.43-.69-1.76-1.56-1.76h-.34V34h.35c.78,0,1.32-.34,1.32-1.45,0-.79-.27-1.38-1.07-1.38-1,0-1.12,1-1.14,1.32Z" transform="translate(-10.34 -11.15)"/><path class="cls-6" d="M154.9,38.64V31.53a3.42,3.42,0,0,1-1.22.46v-.56a3.69,3.69,0,0,0,1.42-.75h.47v8Z" transform="translate(-10.34 -11.15)"/><path class="cls-6" d="M156.4,40a8.92,8.92,0,0,0,.64-2.81h.66A7.2,7.2,0,0,1,157,40Z" transform="translate(-10.34 -11.15)"/><path class="cls-6" d="M161.54,32.3c0-.1-.07-1.1-1-1.1-1.36,0-1.4,2.13-1.43,3.17a1.58,1.58,0,0,1,1.49-.89c1.25,0,1.81,1,1.81,2.52s-.5,2.75-2,2.75c-1.67,0-2-1.65-2-3.93,0-2.51.5-4.21,2.15-4.21a1.63,1.63,0,0,1,1.65,1.69Zm.15,3.75c0-1.18-.34-2-1.24-2a1.41,1.41,0,0,0-1.37,1.58c0,1.06.23,2.51,1.32,2.51C161.18,38.17,161.69,37.5,161.69,36.05Z" transform="translate(-10.34 -11.15)"/></svg>