<svg xmlns="http://www.w3.org/2000/svg" viewBox="0 0 36.85 36.85"><defs><style>.cls-1{fill:#70c4d4;stroke:#2f87a9;stroke-miterlimit:10;stroke-width:0.85px;}.cls-2{fill:#fff;}</style></defs><g id="Слой_1" data-name="Слой 1"><circle class="cls-1" cx="18.43" cy="18.43" r="18"/></g><g id="Слой_3" data-name="Слой 3"><path class="cls-2" d="M23.12,10H17a.92.92,0,0,0-.92.92V16.1H10.92A.92.92,0,0,0,10,17v6a.92.92,0,0,0,.92.92H16.1v5.18A.92.92,0,0,0,17,30h6.1a.92.92,0,0,0,.92-.92V23.9h5A.92.92,0,0,0,30,23V17a.92.92,0,0,0-.92-.92H24V10.92A.92.92,0,0,0,23.12,10Z" transform="translate(-1.57 -1.57)"/></g></svg>