<svg xmlns="http://www.w3.org/2000/svg" viewBox="0 0 36.85 36.85"><defs><style>.cls-1{fill:#70c4d4;stroke:#2f87a9;stroke-miterlimit:10;stroke-width:0.85px;}.cls-2{fill:#fff;}</style></defs><g id="Слой_1" data-name="Слой 1"><circle class="cls-1" cx="18.43" cy="18.43" r="18"/></g><g id="Слой_3" data-name="Слой 3"><path class="cls-2" d="M30.56,9h-3a.47.47,0,0,0-.46.46v2.59H24.46a.47.47,0,0,0-.46.46v3a.47.47,0,0,0,.46.46h2.59v2.59a.47.47,0,0,0,.46.46h3a.46.46,0,0,0,.46-.46V16h2.52a.47.47,0,0,0,.46-.46v-3a.47.47,0,0,0-.46-.46H31V9.46A.46.46,0,0,0,30.56,9Z" transform="translate(-1.57 -1.57)"/><path class="cls-2" d="M20.18,24.15l2.26,2.25a2,2,0,0,1-.15,2.68l-3.14,3.27a1.17,1.17,0,1,1-1.65-1.64l2-2-1.95-1.93,2.64-2.64Zm-7,0h0L11,26.4a2,2,0,0,0,.13,2.68l3.15,3.27a1.17,1.17,0,1,0,1.66-1.64l-2-2,1.93-1.93-2.64-2.64m3.58-8.38a3.26,3.26,0,1,0-3.27-3.26A3.25,3.25,0,0,0,16.77,15.77Zm3.53,7.07.05-2.22,2.71,2.52a1.13,1.13,0,0,0,.79.31,1.17,1.17,0,0,0,.84-.36,1.15,1.15,0,0,0-.06-1.63s-3.1-3.38-3.55-3.77a5.71,5.71,0,0,0-4-1.15h-.62a5.78,5.78,0,0,0-4,1.14c-.44.4-3.55,3.78-3.55,3.78a1.15,1.15,0,0,0-.05,1.63,1.16,1.16,0,0,0,1.63.05l2.71-2.52.05,2.22Z" transform="translate(-1.57 -1.57)"/></g></svg>