<svg id="Слой_1" data-name="Слой 1" xmlns="http://www.w3.org/2000/svg" viewBox="0 0 36.85 36.85"><defs><style>.cls-1{fill:#00a554;stroke:#008a03;stroke-miterlimit:10;stroke-width:0.85px;}.cls-2{fill:#fff;}</style></defs><circle class="cls-1" cx="18.43" cy="18.43" r="18"/><path class="cls-2" d="M14.46,21.52l1.82,1.08-2.37-4.7-5.29.16,1.71,1L8,23.38s1.87,3.39,3.14,5.41A2.41,2.41,0,0,0,13,30.08h6.8v-4.9H12.44Z" transform="translate(-1.57 -1.57)"/><path class="cls-2" d="M20.73,16l5.15.31,2.47-4.69-1.72,1L24,8.44s-3.87,0-6.26.07a2.4,2.4,0,0,0-2,1l-3.36,5.92,4.27,2.42,3.65-6.44L22.46,15Z" transform="translate(-1.57 -1.57)"/><path class="cls-2" d="M31.81,22l-3.24-6-4.31,2.33,3.51,6.5-4.17,0,.06-1.89-3,4.1,2.66,4.58.08-2h4.9s2.09-3.26,3.26-5.34A2.4,2.4,0,0,0,31.81,22Z" transform="translate(-1.57 -1.57)"/></svg>