<svg id="Слой_1" data-name="Слой 1" xmlns="http://www.w3.org/2000/svg" viewBox="0 0 151.45 29.1"><defs><style>.cls-1{fill:#ea5456;}.cls-2{fill:#f7aa5c;}.cls-3{fill:#f8eb52;}.cls-4{fill:#85c387;}.cls-5{fill:#65a9dd;}.cls-6{fill:#1d1d1b;}</style></defs><rect class="cls-1" x="4.55" width="28.35" height="14.17"/><rect class="cls-2" x="32.89" width="28.35" height="14.17"/><rect class="cls-3" x="61.24" width="28.35" height="14.17"/><rect class="cls-4" x="89.59" width="28.35" height="14.17"/><rect class="cls-5" x="117.93" width="28.35" height="14.17"/><path class="cls-6" d="M12.5,38.85v-7.1a3.4,3.4,0,0,1-1.22.45v-.56a3.76,3.76,0,0,0,1.42-.74h.47v8Z" transform="translate(-11.28 -11.15)"/><path class="cls-6" d="M14,40.25a9.27,9.27,0,0,0,.64-2.81h.66a7.38,7.38,0,0,1-.73,2.81Z" transform="translate(-11.28 -11.15)"/><path class="cls-6" d="M20.13,34.8c0,2.84-.52,4.17-2,4.17s-2-1.48-2-4.18c0-2.94.71-4,2-4S20.13,32,20.13,34.8Zm-3.31,0c0,2.37.29,3.59,1.31,3.59s1.31-1.16,1.31-3.57-.35-3.37-1.29-3.37S16.82,32.25,16.82,34.78Z" transform="translate(-11.28 -11.15)"/><path class="cls-6" d="M41.67,38.85v-7.1a3.4,3.4,0,0,1-1.22.45v-.56a3.69,3.69,0,0,0,1.42-.74h.47v8Z" transform="translate(-11.28 -11.15)"/><path class="cls-6" d="M43.17,40.25a9,9,0,0,0,.64-2.81h.66a7.38,7.38,0,0,1-.73,2.81Z" transform="translate(-11.28 -11.15)"/><path class="cls-6" d="M47.9,38.85V36.67H45v-.59l2.67-5.16h.86v5.15h.8l-.08.6h-.72v2.18Zm0-5.18c0-.64,0-1.5,0-2.08-.4,1-1.54,3.17-2.21,4.48H47.9Z" transform="translate(-11.28 -11.15)"/><path class="cls-6" d="M69.84,38.85v-7.1a3.4,3.4,0,0,1-1.22.45v-.56a3.82,3.82,0,0,0,1.43-.74h.46v8Z" transform="translate(-11.28 -11.15)"/><path class="cls-6" d="M71.34,40.25A9,9,0,0,0,72,37.44h.66a7.2,7.2,0,0,1-.73,2.81Z" transform="translate(-11.28 -11.15)"/><path class="cls-6" d="M73.52,36.64a2.07,2.07,0,0,1,1-2.06,1.8,1.8,0,0,1-.84-1.71,1.83,1.83,0,0,1,1.82-2,1.72,1.72,0,0,1,1.73,2c0,1.09-.42,1.58-.86,1.77.59.25,1,.87,1,2.09s-.64,2.31-2,2.31S73.52,37.92,73.52,36.64Zm3.26,0c0-1.15-.38-1.77-1.29-1.77s-1.29.76-1.29,1.73.37,1.76,1.28,1.76S76.78,37.68,76.78,36.66ZM74.4,32.82c0,.83.27,1.48,1.11,1.48s1.1-.43,1.1-1.48c0-.73-.29-1.41-1.11-1.41S74.4,32.13,74.4,32.82Z" transform="translate(-11.28 -11.15)"/><path class="cls-6" d="M96,38.85V38.8a5.52,5.52,0,0,1,1.79-3.34c1-1.14,1.39-1.6,1.39-2.54,0-.76-.23-1.5-1.15-1.5S96.8,32,96.76,33h-.67c0-1.13.56-2.2,1.91-2.2s1.84,1,1.84,2.08-.41,1.69-1.47,2.81a6.13,6.13,0,0,0-1.63,2.53h3.33l-.11.6Z" transform="translate(-11.28 -11.15)"/><path class="cls-6" d="M100.5,40.25a9,9,0,0,0,.63-2.81h.66a7.2,7.2,0,0,1-.73,2.81Z" transform="translate(-11.28 -11.15)"/><path class="cls-6" d="M102.6,38.85V38.8a5.61,5.61,0,0,1,1.8-3.34c1-1.14,1.39-1.6,1.39-2.54,0-.76-.23-1.5-1.15-1.5s-1.19.61-1.23,1.61h-.68c0-1.13.56-2.2,1.92-2.2s1.84,1,1.84,2.08-.42,1.69-1.47,2.81a6.19,6.19,0,0,0-1.64,2.53h3.33l-.1.6Z" transform="translate(-11.28 -11.15)"/><path class="cls-6" d="M124.13,38.85V38.8a5.58,5.58,0,0,1,1.79-3.34c1-1.14,1.39-1.6,1.39-2.54,0-.76-.22-1.5-1.14-1.5S125,32,124.93,33h-.67c0-1.13.56-2.2,1.91-2.2s1.84,1,1.84,2.08-.41,1.69-1.47,2.81a6.13,6.13,0,0,0-1.63,2.53h3.33l-.11.6Z" transform="translate(-11.28 -11.15)"/><path class="cls-6" d="M128.67,40.25a9.27,9.27,0,0,0,.64-2.81H130a7.38,7.38,0,0,1-.73,2.81Z" transform="translate(-11.28 -11.15)"/><path class="cls-6" d="M133.81,32.52c0-.11-.08-1.11-1-1.11-1.35,0-1.39,2.14-1.42,3.18a1.57,1.57,0,0,1,1.49-.89c1.25,0,1.81,1,1.81,2.52s-.5,2.75-2,2.75c-1.68,0-2-1.65-2-3.93,0-2.52.49-4.21,2.14-4.21a1.63,1.63,0,0,1,1.65,1.69Zm.15,3.75c0-1.18-.34-2-1.24-2a1.42,1.42,0,0,0-1.38,1.58c0,1.07.23,2.51,1.33,2.51C133.45,38.38,134,37.72,134,36.27Z" transform="translate(-11.28 -11.15)"/><path class="cls-6" d="M152.43,32.73a1.75,1.75,0,0,1,1.8-1.9c1.28,0,1.72.89,1.72,2a1.62,1.62,0,0,1-1,1.72h0c.73.25,1.21.82,1.21,2.06s-.46,2.39-2,2.39a1.84,1.84,0,0,1-1.92-2h.65a1.32,1.32,0,0,0,1.29,1.42c1.07,0,1.3-1,1.3-1.77,0-1.43-.69-1.76-1.55-1.76h-.34v-.59h.34c.78,0,1.33-.34,1.33-1.45,0-.79-.27-1.38-1.08-1.38-1,0-1.11,1-1.13,1.31Z" transform="translate(-11.28 -11.15)"/><path class="cls-6" d="M156.59,40.25a8.71,8.71,0,0,0,.64-2.81h.66a7.2,7.2,0,0,1-.73,2.81Z" transform="translate(-11.28 -11.15)"/><path class="cls-6" d="M162.73,34.8c0,2.84-.52,4.17-2,4.17s-2-1.48-2-4.18c0-2.94.7-4,2-4S162.73,32,162.73,34.8Zm-3.31,0c0,2.37.28,3.59,1.31,3.59s1.3-1.16,1.3-3.57-.34-3.37-1.28-3.37S159.42,32.25,159.42,34.78Z" transform="translate(-11.28 -11.15)"/></svg>