<?xml version="1.0" encoding="utf-8"?>
<!-- Generator: Adobe Illustrator 24.3.0, SVG Export Plug-In . SVG Version: 6.00 Build 0)  -->
<svg version="1.1" id="Слой_1" xmlns="http://www.w3.org/2000/svg" xmlns:xlink="http://www.w3.org/1999/xlink" x="0px" y="0px"
	 viewBox="0 0 36.8 36.8" style="enable-background:new 0 0 36.8 36.8;" xml:space="preserve">
<style type="text/css">
	.st0{fill:#4ADC33;stroke:#00B533;stroke-width:0.85;stroke-miterlimit:10;}
	.st1{fill:#FFFFFF;}
</style>
<circle class="st0" cx="18.4" cy="18.4" r="18"/>
<path class="st1" d="M29.1,14.2l-1.8-1.8l1.4-1.4c0.3-0.2,0.3-0.7,0-0.9c0,0,0,0,0,0l-1.8-1.8c-0.3-0.2-0.7-0.2-0.9,0l-1.4,1.4
	l-1.8-1.8c-0.5-0.5-1.3-0.5-1.8,0s-0.5,1.3,0,1.8l0,0l6.4,6.4c0.5,0.5,1.3,0.5,1.8,0C29.6,15.5,29.6,14.7,29.1,14.2
	C29.1,14.2,29.1,14.2,29.1,14.2z"/>
<path class="st1" d="M16,27.3l-6.4-6.4c-0.5-0.5-1.3-0.5-1.8,0c-0.5,0.5-0.5,1.3,0,1.8c0,0,0,0,0,0l1.8,1.8l-1.4,1.4
	C8.1,26,8,26.2,8,26.3c0,0.2,0.1,0.3,0.2,0.5l1.8,1.8c0.1,0.1,0.3,0.2,0.4,0.2c0.2,0,0.3-0.1,0.5-0.2l1.4-1.4l1.8,1.8
	c0.5,0.5,1.3,0.5,1.8,0S16.5,27.8,16,27.3z"/>
<polygon class="st1" points="19,15.1 15.1,19 17.8,21.8 21.8,17.8 "/>
<path class="st1" d="M27.3,17.8L19,9.6c-0.5-0.5-1.3-0.5-1.8,0c-0.5,0.5-0.5,1.3,0,1.8l0,0l8.2,8.2c0.5,0.5,1.3,0.5,1.8,0
	c0,0,0,0,0,0C27.8,19.2,27.8,18.3,27.3,17.8z"/>
<path class="st1" d="M19.7,25.4l-8.2-8.2c-0.5-0.5-1.3-0.5-1.8,0c0,0,0,0,0,0c-0.5,0.5-0.5,1.3,0,1.8l8.2,8.2c0.5,0.5,1.3,0.5,1.8,0
	S20.2,25.9,19.7,25.4L19.7,25.4z"/>
</svg>
