<?xml version="1.0" encoding="utf-8"?>
<!-- Generator: Adobe Illustrator 24.3.0, SVG Export Plug-In . SVG Version: 6.00 Build 0)  -->
<svg version="1.1" id="Слой_1" xmlns="http://www.w3.org/2000/svg" xmlns:xlink="http://www.w3.org/1999/xlink" x="0px" y="0px"
	 viewBox="0 0 36.8 36.8" style="enable-background:new 0 0 36.8 36.8;" xml:space="preserve">
<style type="text/css">
	.st0{fill:#4ADC33;stroke:#00B533;stroke-width:0.85;stroke-miterlimit:10;}
	.st1{fill:#FFFFFF;}
</style>
<g id="Слой_1_1_">
	<circle class="st0" cx="18.4" cy="18.4" r="18"/>
</g>
<g id="Слой_2_1_">
	<path class="st1" d="M13.1,9.7H9.6c-0.4,0-0.7,0.3-0.7,0.7c0,0.4,0.3,0.7,0.7,0.7h3.6c0.4,0,0.7-0.3,0.7-0.7
		C13.8,10,13.5,9.7,13.1,9.7z"/>
	<path class="st1" d="M13.1,15.3H9.6c-0.4,0-0.7,0.4-0.6,0.8c0,0.3,0.3,0.6,0.6,0.6h3.6c0.4,0,0.7-0.4,0.6-0.8
		C13.7,15.6,13.4,15.3,13.1,15.3z"/>
	<path class="st1" d="M11.7,12.4H8.2c-0.4,0-0.7,0.3-0.7,0.7s0.3,0.7,0.7,0.7c0,0,0,0,0,0h3.6c0.4,0,0.7-0.3,0.7-0.7
		C12.4,12.7,12.1,12.4,11.7,12.4z"/>
	<path class="st1" d="M30,16h-4.3v-2.8c0-0.8-0.6-1.4-1.4-1.4c-0.4,0-0.7,0.1-1,0.4l-5.6,5.6c-0.6,0.5-0.6,1.4,0,2c0,0,0,0,0,0
		L21,23L17,26.9c-0.6,0.6-0.6,1.4,0,2s1.4,0.6,2,0l4.9-4.9c0.6-0.5,0.6-1.4,0-2c0,0,0,0,0,0l-3.2-3.2l2.2-2.2v0.9
		c0,0.8,0.6,1.4,1.4,1.4H30c0.8-0.1,1.4-0.7,1.3-1.5C31.2,16.6,30.7,16.1,30,16L30,16z"/>
	<path class="st1" d="M20.6,8.8C20,8.5,19.3,8.5,18.8,9l-3.9,3.9c-0.6,0.6-0.6,1.4,0,2c0.6,0.6,1.4,0.6,2,0l0,0l3-3l1,0.7l1.4-1.4
		c0.2-0.2,0.5-0.4,0.8-0.5L20.6,8.8z"/>
	<path class="st1" d="M16.7,20.8c-0.3-0.4-0.6-0.8-0.7-1.3l-7.4,7.4c-0.6,0.6-0.6,1.4,0,2s1.4,0.6,2,0l7.1-7.1L16.7,20.8z"/>
	<circle class="st1" cx="26.4" cy="9.7" r="2.1"/>
</g>
</svg>
