<svg xmlns="http://www.w3.org/2000/svg" viewBox="0 0 36.85 36.85"><defs><style>.cls-1,.cls-3{fill:#70c4d4;}.cls-1{stroke:#2f87a9;stroke-miterlimit:10;stroke-width:0.85px;}.cls-2{fill:#fff;}</style></defs><g id="Слой_1" data-name="Слой 1"><circle class="cls-1" cx="18.43" cy="18.43" r="18"/></g><g id="Слой_3" data-name="Слой 3"><path class="cls-2" d="M21.58,9.73a3.45,3.45,0,0,1-3.16,0A6.45,6.45,0,0,0,9,15.45C9,18.48,11.53,31,15.46,31c1.38,0,2.63-1.41,3.83-4.3a.77.77,0,0,1,1.42,0c1.2,2.89,2.45,4.3,3.83,4.3C28.43,31,31,18.57,31,15.45A6.45,6.45,0,0,0,21.58,9.73Z" transform="translate(-1.57 -1.57)"/></g><g id="Слой_2" data-name="Слой 2"><path class="cls-3" d="M16.3,15.76l.2-.06.19-.1.16-.14A1,1,0,0,0,17,15.3a.87.87,0,0,0,.1-.19,1.59,1.59,0,0,0,.07-.2,1.64,1.64,0,0,0,0-.22,1.49,1.49,0,0,0,0-.21,1.59,1.59,0,0,0-.07-.2.87.87,0,0,0-.1-.19,1,1,0,0,0-.13-.16l-.16-.14-.19-.09-.2-.07a1,1,0,0,0-.43,0l-.2.07a1.11,1.11,0,0,0-.19.09,1.6,1.6,0,0,0-.3.3,1.74,1.74,0,0,0-.1.19l-.06.2a1.49,1.49,0,0,0,0,.21,1.64,1.64,0,0,0,0,.22l.06.2a1.74,1.74,0,0,0,.1.19,1.6,1.6,0,0,0,.3.3l.19.1.2.06.21,0Z" transform="translate(-1.57 -1.57)"/><path class="cls-3" d="M24.92,14.28a1.74,1.74,0,0,0-.1-.19,1.6,1.6,0,0,0-.3-.3,1.11,1.11,0,0,0-.19-.09l-.2-.07a1,1,0,0,0-.42,0l-.21.07-.18.09-.17.14a1,1,0,0,0-.13.16.87.87,0,0,0-.1.19,1.41,1.41,0,0,0-.09.41,1.1,1.1,0,0,0,.32.77l.17.14.18.1.21.06.21,0,.21,0,.2-.06.19-.1a1.07,1.07,0,0,0,.16-.14,1.06,1.06,0,0,0,.32-.77,1.49,1.49,0,0,0,0-.21A.76.76,0,0,0,24.92,14.28Z" transform="translate(-1.57 -1.57)"/><path class="cls-3" d="M23.28,18.31a5.71,5.71,0,0,1-6.56,0,1.1,1.1,0,0,0-1.52.27,1.08,1.08,0,0,0,.27,1.52,7.89,7.89,0,0,0,9.06,0,1.08,1.08,0,0,0,.27-1.52A1.1,1.1,0,0,0,23.28,18.31Z" transform="translate(-1.57 -1.57)"/></g></svg>