<?xml version="1.0" encoding="utf-8"?>
<!-- Generator: Adobe Illustrator 24.3.0, SVG Export Plug-In . SVG Version: 6.00 Build 0)  -->
<svg version="1.1" id="Слой_1" xmlns="http://www.w3.org/2000/svg" xmlns:xlink="http://www.w3.org/1999/xlink" x="0px" y="0px"
	 viewBox="0 0 36.8 36.8" style="enable-background:new 0 0 36.8 36.8;" xml:space="preserve">
<style type="text/css">
	.st0{fill:#FFBB43;stroke:#F28900;stroke-width:0.85;stroke-miterlimit:10;}
	.st1{fill:#FFFFFF;}
</style>
<g id="Слой_1_1_">
	<circle class="st0" cx="18.4" cy="18.4" r="18"/>
</g>
<g>
	<g>
		<path class="st1" d="M30.4,16C30.3,16,30.3,16,30.4,16c-2.6,0-21.1,0-23.8,0c0,0,0,0-0.1,0c-0.4,0-0.7,0.3-0.7,0.7
			c0,0.4,0.3,0.7,0.7,0.7h0.8l1.8,11.7c0.1,0.4,0.4,0.6,0.7,0.6H27c0.4,0,0.7-0.3,0.7-0.6l1.8-11.7h0.8c0.4,0,0.7-0.3,0.7-0.7
			C31,16.4,30.7,16.1,30.4,16z M14.3,26.5c-0.4,0-0.8-0.3-0.8-0.7L13,20.2c0-0.4,0.3-0.8,0.7-0.8s0.8,0.3,0.8,0.7l0.5,5.6
			C15,26.1,14.7,26.4,14.3,26.5L14.3,26.5z M19.2,25.7c0,0.4-0.3,0.7-0.7,0.7s-0.7-0.3-0.7-0.7v-5.6c0-0.4,0.3-0.7,0.7-0.7
			s0.7,0.3,0.7,0.7V25.7z M23.8,20.2l-0.5,5.6c0,0.4-0.4,0.7-0.7,0.7c0,0,0,0-0.1,0c-0.4,0-0.7-0.4-0.7-0.8l0.5-5.6
			c0-0.4,0.4-0.7,0.8-0.7C23.6,19.5,23.9,19.8,23.8,20.2z"/>
	</g>
	<g>
		<path class="st1" d="M27.7,14.6h-1.6l-2.7-6.1h-1.3c-0.4,0-0.7-0.3-0.7-0.7c0-0.4,0.3-0.7,0.7-0.7h1.8c0.3,0,0.6,0.2,0.7,0.4
			L27.7,14.6z"/>
		<path class="st1" d="M15.4,7.7c0,0.4-0.3,0.7-0.7,0.7h-1.3l-2.7,6.1H9.1l3.1-7.1C12.4,7.2,12.6,7,12.9,7h1.8
			C15.1,7,15.4,7.3,15.4,7.7z"/>
	</g>
</g>
</svg>
