<svg id="Слой_1" data-name="Слой 1" xmlns="http://www.w3.org/2000/svg" viewBox="0 0 151.02 28.74"><defs><style>.cls-1{fill:#ea5456;}.cls-2{fill:#f7aa5c;}.cls-3{fill:#f8eb52;}.cls-4{fill:#85c387;}.cls-5{fill:#65a9dd;}.cls-6{fill:#1d1d1b;}</style></defs><rect class="cls-1" x="5.26" width="28.35" height="14.17"/><rect class="cls-2" x="33.6" width="28.35" height="14.17"/><rect class="cls-3" x="61.95" width="28.35" height="14.17"/><rect class="cls-4" x="90.3" width="28.35" height="14.17"/><rect class="cls-5" x="118.64" width="28.35" height="14.17"/><path class="cls-6" d="M14.57,34.44c0,2.84-.52,4.18-2,4.18s-2-1.49-2-4.19c0-2.93.71-4,2-4S14.57,31.68,14.57,34.44Zm-3.31,0c0,2.37.28,3.6,1.31,3.6s1.31-1.16,1.31-3.57-.35-3.38-1.29-3.38S11.26,31.89,11.26,34.42Z" transform="translate(-10.57 -11.15)"/><path class="cls-6" d="M15,39.9a9.27,9.27,0,0,0,.64-2.81h.66a7.43,7.43,0,0,1-.73,2.81Z" transform="translate(-10.57 -11.15)"/><path class="cls-6" d="M20.12,32.16c0-.1-.08-1.1-1-1.1-1.36,0-1.39,2.13-1.43,3.18a1.59,1.59,0,0,1,1.5-.9c1.25,0,1.81,1,1.81,2.53s-.5,2.75-2,2.75c-1.68,0-2-1.66-2-3.93,0-2.52.49-4.22,2.14-4.22a1.63,1.63,0,0,1,1.65,1.69Zm.15,3.76c0-1.18-.34-2-1.24-2a1.42,1.42,0,0,0-1.38,1.58c0,1.07.23,2.51,1.33,2.51C19.76,38,20.27,37.37,20.27,35.92Z" transform="translate(-10.57 -11.15)"/><path class="cls-6" d="M40.51,38.5V31.4a3.6,3.6,0,0,1-1.22.45v-.56a3.68,3.68,0,0,0,1.43-.75h.46v8Z" transform="translate(-10.57 -11.15)"/><path class="cls-6" d="M42,39.9a9,9,0,0,0,.64-2.81h.66a7.25,7.25,0,0,1-.73,2.81Z" transform="translate(-10.57 -11.15)"/><path class="cls-6" d="M48.14,34.44c0,2.84-.51,4.18-2,4.18s-2-1.49-2-4.19c0-2.93.7-4,2-4S48.14,31.68,48.14,34.44Zm-3.3,0c0,2.37.28,3.6,1.31,3.6s1.3-1.16,1.3-3.57-.34-3.38-1.28-3.38S44.84,31.89,44.84,34.42Z" transform="translate(-10.57 -11.15)"/><path class="cls-6" d="M68.68,38.5V31.4a3.62,3.62,0,0,1-1.21.45v-.56a3.63,3.63,0,0,0,1.42-.75h.47v8Z" transform="translate(-10.57 -11.15)"/><path class="cls-6" d="M70.19,39.9a9,9,0,0,0,.63-2.81h.66a7.25,7.25,0,0,1-.73,2.81Z" transform="translate(-10.57 -11.15)"/><path class="cls-6" d="M74.92,38.5V36.31H72v-.58l2.67-5.16h.87v5.15h.8l-.09.59h-.71V38.5Zm0-5.18c0-.65,0-1.5,0-2.08-.4,1-1.54,3.17-2.2,4.48h2.18Z" transform="translate(-10.57 -11.15)"/><path class="cls-6" d="M97.86,38.5V31.4a3.6,3.6,0,0,1-1.22.45v-.56a3.63,3.63,0,0,0,1.42-.75h.47v8Z" transform="translate(-10.57 -11.15)"/><path class="cls-6" d="M99.36,39.9a9.27,9.27,0,0,0,.64-2.81h.66a7.43,7.43,0,0,1-.73,2.81Z" transform="translate(-10.57 -11.15)"/><path class="cls-6" d="M101.54,36.29a2,2,0,0,1,1-2.06,1.83,1.83,0,0,1-.84-1.72,1.82,1.82,0,0,1,1.81-2,1.74,1.74,0,0,1,1.74,2c0,1.08-.43,1.58-.86,1.76.59.25,1,.88,1,2.09s-.63,2.32-2,2.32S101.54,37.56,101.54,36.29Zm3.25,0c0-1.14-.38-1.76-1.29-1.76s-1.28.75-1.28,1.72S102.59,38,103.5,38,104.79,37.33,104.79,36.3Zm-2.37-3.84c0,.84.27,1.48,1.11,1.48s1.1-.42,1.1-1.47c0-.73-.3-1.41-1.11-1.41S102.42,31.77,102.42,32.46Z" transform="translate(-10.57 -11.15)"/><path class="cls-6" d="M125,38.5v0a5.53,5.53,0,0,1,1.8-3.34c1-1.14,1.39-1.6,1.39-2.55,0-.75-.23-1.5-1.15-1.5s-1.19.61-1.23,1.61h-.68c0-1.13.56-2.2,1.92-2.2s1.84,1,1.84,2.08-.42,1.7-1.48,2.81a6.31,6.31,0,0,0-1.63,2.53h3.33l-.1.61Z" transform="translate(-10.57 -11.15)"/><path class="cls-6" d="M129.51,39.9a9,9,0,0,0,.64-2.81h.66a7.43,7.43,0,0,1-.73,2.81Z" transform="translate(-10.57 -11.15)"/><path class="cls-6" d="M131.62,38.5v0a5.56,5.56,0,0,1,1.79-3.34c1.05-1.14,1.4-1.6,1.4-2.55,0-.75-.23-1.5-1.15-1.5s-1.19.61-1.24,1.61h-.67c0-1.13.56-2.2,1.91-2.2s1.84,1,1.84,2.08-.41,1.7-1.47,2.81a6.31,6.31,0,0,0-1.63,2.53h3.33l-.1.61Z" transform="translate(-10.57 -11.15)"/><path class="cls-6" d="M151.07,38.5v0a5.5,5.5,0,0,1,1.79-3.34c1-1.14,1.39-1.6,1.39-2.55,0-.75-.23-1.5-1.15-1.5s-1.19.61-1.23,1.61h-.67c0-1.13.56-2.2,1.91-2.2s1.84,1,1.84,2.08-.41,1.7-1.47,2.81a6.2,6.2,0,0,0-1.63,2.53h3.33l-.11.61Z" transform="translate(-10.57 -11.15)"/><path class="cls-6" d="M155.61,39.9a9,9,0,0,0,.63-2.81h.66a7.25,7.25,0,0,1-.73,2.81Z" transform="translate(-10.57 -11.15)"/><path class="cls-6" d="M160.75,32.16c0-.1-.08-1.1-1-1.1-1.36,0-1.39,2.13-1.43,3.18a1.59,1.59,0,0,1,1.49-.9c1.26,0,1.82,1,1.82,2.53s-.5,2.75-2,2.75c-1.68,0-2-1.66-2-3.93,0-2.52.5-4.22,2.15-4.22a1.63,1.63,0,0,1,1.65,1.69Zm.15,3.76c0-1.18-.34-2-1.24-2a1.42,1.42,0,0,0-1.38,1.58c0,1.07.23,2.51,1.33,2.51C160.39,38,160.9,37.37,160.9,35.92Z" transform="translate(-10.57 -11.15)"/></svg>