<svg id="Слой_1" data-name="Слой 1" xmlns="http://www.w3.org/2000/svg" viewBox="0 0 154.19 28.48"><defs><style>.cls-1{fill:#ea5456;}.cls-2{fill:#f7aa5c;}.cls-3{fill:#f8eb52;}.cls-4{fill:#85c387;}.cls-5{fill:#65a9dd;}.cls-6{fill:#1d1d1b;}</style></defs><rect class="cls-1" x="5.5" width="28.35" height="14.17"/><rect class="cls-2" x="33.84" width="28.35" height="14.17"/><rect class="cls-3" x="62.19" width="28.35" height="14.17"/><rect class="cls-4" x="90.54" width="28.35" height="14.17"/><rect class="cls-5" x="118.88" width="28.35" height="14.17"/><path class="cls-6" d="M13.48,31.9c0-.11-.07-1.11-1-1.11-1.36,0-1.4,2.14-1.43,3.18a1.58,1.58,0,0,1,1.49-.89c1.25,0,1.81,1,1.81,2.52s-.5,2.75-2,2.75c-1.68,0-2-1.65-2-3.93,0-2.52.5-4.21,2.15-4.21a1.63,1.63,0,0,1,1.65,1.69Zm.15,3.75c0-1.18-.34-2-1.24-2A1.42,1.42,0,0,0,11,35.26c0,1.06.23,2.51,1.33,2.51C13.12,37.77,13.63,37.1,13.63,35.65Z" transform="translate(-10.33 -11.15)"/><path class="cls-6" d="M14.75,39.63a9.27,9.27,0,0,0,.64-2.81h.66a7.38,7.38,0,0,1-.73,2.81Z" transform="translate(-10.33 -11.15)"/><path class="cls-6" d="M20.38,30.91H17.87c-.05.84-.2,2.3-.24,2.77a1.42,1.42,0,0,1,1.3-.62c1.27,0,1.79,1,1.79,2.46s-.46,2.82-2,2.82-1.86-1-1.91-2h.69c0,.56.21,1.41,1.24,1.41s1.27-1,1.27-2.18c0-1-.26-1.91-1.19-1.91a1.26,1.26,0,0,0-1.27,1l-.64-.13c.12-.89.31-3,.39-4.27h3.18Z" transform="translate(-10.33 -11.15)"/><path class="cls-6" d="M42.87,30.3v.57a22.75,22.75,0,0,0-2.38,7.36h-.72a22.88,22.88,0,0,1,2.41-7.3H39V30.3Z" transform="translate(-10.33 -11.15)"/><path class="cls-6" d="M41.67,39.63a9.27,9.27,0,0,0,.64-2.81H43a7.38,7.38,0,0,1-.73,2.81Z" transform="translate(-10.33 -11.15)"/><path class="cls-6" d="M43.77,38.23v0a5.61,5.61,0,0,1,1.8-3.34c1-1.14,1.39-1.59,1.39-2.54,0-.76-.23-1.5-1.15-1.5s-1.19.61-1.23,1.61h-.67c0-1.13.56-2.2,1.91-2.2s1.84,1,1.84,2.08S47.24,34,46.19,35.1a6.13,6.13,0,0,0-1.63,2.53h3.32l-.1.6Z" transform="translate(-10.33 -11.15)"/><path class="cls-6" d="M72,30.3v.57a22.75,22.75,0,0,0-2.38,7.36h-.72a22.64,22.64,0,0,1,2.42-7.3H68.21V30.3Z" transform="translate(-10.33 -11.15)"/><path class="cls-6" d="M70.84,39.63a9.27,9.27,0,0,0,.64-2.81h.66a7.38,7.38,0,0,1-.73,2.81Z" transform="translate(-10.33 -11.15)"/><path class="cls-6" d="M73.64,36.75a1,1,0,0,0,1.1,1c1.22,0,1.31-1.89,1.35-3.53a1.41,1.41,0,0,1-1.41.88c-1.16,0-1.78-.88-1.78-2.35,0-1.73.79-2.54,1.94-2.54s1.93.73,1.93,3.33c0,3.37-.45,4.8-2,4.8A1.63,1.63,0,0,1,73,36.75Zm-.06-4c0,1,.31,1.78,1.21,1.78s1.26-.72,1.26-1.67-.17-2-1.23-2C74.06,30.8,73.58,31.43,73.58,32.72Z" transform="translate(-10.33 -11.15)"/><path class="cls-6" d="M96.8,36a2.06,2.06,0,0,1,1-2.06A1.8,1.8,0,0,1,97,32.25a1.82,1.82,0,0,1,1.82-2,1.73,1.73,0,0,1,1.73,2c0,1.09-.43,1.58-.86,1.77.59.25,1,.87,1,2.09s-.64,2.31-2,2.31S96.8,37.3,96.8,36Zm3.25,0c0-1.15-.37-1.76-1.28-1.76S97.48,35,97.48,36s.37,1.76,1.28,1.76S100.05,37.07,100.05,36ZM97.68,32.2c0,.83.27,1.48,1.11,1.48s1.1-.42,1.1-1.48c0-.73-.3-1.41-1.11-1.41S97.68,31.51,97.68,32.2Z" transform="translate(-10.33 -11.15)"/><path class="cls-6" d="M101.11,39.63a9,9,0,0,0,.64-2.81h.66a7.2,7.2,0,0,1-.73,2.81Z" transform="translate(-10.33 -11.15)"/><path class="cls-6" d="M106.25,31.9c0-.11-.07-1.11-1-1.11-1.36,0-1.4,2.14-1.43,3.18a1.58,1.58,0,0,1,1.49-.89c1.25,0,1.81,1,1.81,2.52s-.5,2.75-2,2.75c-1.68,0-2-1.65-2-3.93,0-2.52.5-4.21,2.15-4.21a1.63,1.63,0,0,1,1.65,1.69Zm.15,3.75c0-1.18-.34-2-1.24-2a1.42,1.42,0,0,0-1.37,1.59c0,1.06.23,2.51,1.33,2.51C105.89,37.77,106.4,37.1,106.4,35.65Z" transform="translate(-10.33 -11.15)"/><path class="cls-6" d="M124.69,36.75a1,1,0,0,0,1.1,1c1.22,0,1.3-1.89,1.35-3.53a1.41,1.41,0,0,1-1.41.88c-1.16,0-1.78-.88-1.78-2.35,0-1.73.79-2.54,1.94-2.54s1.93.73,1.93,3.33c0,3.37-.45,4.8-2,4.8A1.62,1.62,0,0,1,124,36.75Zm-.06-4c0,1,.31,1.78,1.21,1.78s1.26-.72,1.26-1.67-.17-2-1.23-2C125.11,30.8,124.63,31.43,124.63,32.72Z" transform="translate(-10.33 -11.15)"/><path class="cls-6" d="M128.24,39.63a9.27,9.27,0,0,0,.64-2.81h.66a7.38,7.38,0,0,1-.73,2.81Z" transform="translate(-10.33 -11.15)"/><path class="cls-6" d="M130.62,32.11a1.76,1.76,0,0,1,1.8-1.9c1.28,0,1.72.89,1.72,1.95a1.62,1.62,0,0,1-1,1.72h0c.73.25,1.21.82,1.21,2.06s-.46,2.39-2,2.39a1.85,1.85,0,0,1-1.92-2h.66a1.3,1.3,0,0,0,1.28,1.42c1.07,0,1.31-1,1.31-1.77,0-1.43-.69-1.76-1.56-1.76h-.34v-.59h.35c.78,0,1.32-.34,1.32-1.45,0-.79-.27-1.38-1.07-1.38-1,0-1.12,1-1.14,1.31Z" transform="translate(-10.33 -11.15)"/><path class="cls-6" d="M151.88,38.23v-7.1a3.65,3.65,0,0,1-1.21.46V31a3.91,3.91,0,0,0,1.42-.75h.47v7.95Z" transform="translate(-10.33 -11.15)"/><path class="cls-6" d="M158,34.18c0,2.84-.51,4.17-2,4.17s-2-1.48-2-4.18c0-2.94.71-4,2-4S158,31.42,158,34.18Zm-3.3,0c0,2.37.28,3.59,1.31,3.59s1.3-1.16,1.3-3.57S157,30.81,156,30.81,154.68,31.63,154.68,34.16Z" transform="translate(-10.33 -11.15)"/><path class="cls-6" d="M158.39,39.63a9,9,0,0,0,.64-2.81h.66a7.2,7.2,0,0,1-.73,2.81Z" transform="translate(-10.33 -11.15)"/><path class="cls-6" d="M164.52,34.18c0,2.84-.51,4.17-2,4.17s-2-1.48-2-4.18c0-2.94.71-4,2-4S164.52,31.42,164.52,34.18Zm-3.3,0c0,2.37.28,3.59,1.3,3.59s1.31-1.16,1.31-3.57-.34-3.37-1.29-3.37S161.22,31.63,161.22,34.16Z" transform="translate(-10.33 -11.15)"/></svg>