<svg id="Слой_1" data-name="Слой 1" xmlns="http://www.w3.org/2000/svg" viewBox="0 0 36.85 36.85"><defs><style>.cls-1{fill:#00a554;stroke:#048b38;stroke-miterlimit:10;stroke-width:0.85px;}.cls-2{fill:#fff;}</style></defs><circle class="cls-1" cx="18.43" cy="18.43" r="18"/><path class="cls-2" d="M27.88,11H23.75v-.75A2.25,2.25,0,0,0,21.5,8h-3a2.25,2.25,0,0,0-2.25,2.25V11H12.12a1.88,1.88,0,0,0-1.87,1.88v1.5a.75.75,0,0,0,.75.74H29a.75.75,0,0,0,.75-.74v-1.5A1.88,1.88,0,0,0,27.88,11Zm-10.13-.75a.76.76,0,0,1,.75-.75h3a.76.76,0,0,1,.75.75V11h-4.5Z" transform="translate(-1.57 -1.57)"/><path class="cls-2" d="M11.67,16.62a.24.24,0,0,0-.23.25l.62,13A2.25,2.25,0,0,0,14.31,32H25.69a2.25,2.25,0,0,0,2.25-2.14l.62-13a.24.24,0,0,0-.23-.25ZM23,18.5a.75.75,0,0,1,1.5,0v9.75a.75.75,0,0,1-1.5,0Zm-3.75,0a.75.75,0,0,1,1.5,0v9.75a.75.75,0,0,1-1.5,0Zm-3.75,0a.75.75,0,0,1,1.5,0v9.75a.75.75,0,0,1-1.5,0Z" transform="translate(-1.57 -1.57)"/></svg>