<svg id="Слой_1" data-name="Слой 1" xmlns="http://www.w3.org/2000/svg" viewBox="0 0 381.2 381.29"><defs><style>.cls-1{fill:gray;}.cls-1,.cls-2,.cls-3,.cls-4,.cls-5,.cls-6,.cls-7,.cls-8{stroke:#000;stroke-miterlimit:10;stroke-width:0.5px;}.cls-2{fill:#dfdfdf;}.cls-4{fill:#606060;}.cls-5{fill:#bfbfbf;}.cls-6{fill:#202020;}.cls-7{fill:#9f9f9f;}.cls-8{fill:#404040;}.cls-9{fill:#fff;}</style></defs><path class="cls-1" d="M190.64,190.56l-62-179.94a189.07,189.07,0,0,1,62-10.37Z"/><path class="cls-2" d="M190.64,190.56,113.23,16.7c5.86-2.6,9.39-4,15.45-6.08Z"/><path class="cls-3" d="M190.64,190.56,95.48,25.75a193.51,193.51,0,0,1,17.75-9Z"/><path class="cls-4" d="M190.64,190.56,73.47,40.59a182.37,182.37,0,0,1,22-14.84Z"/><path class="cls-5" d="M190.64,190.56,44.85,68.23A183.87,183.87,0,0,1,73.47,40.59Z"/><path class="cls-6" d="M190.64,190.56l-179.95-62A183.74,183.74,0,0,1,44.85,68.23Z"/><path class="cls-7" d="M190.64,190.56l-190,10C-.81,174,2,153.75,10.69,128.6Z"/><path class="cls-8" d="M190.64,190.56,24.19,282.83A183.12,183.12,0,0,1,.59,200.52Z"/><path class="cls-1" d="M190.64,190.56,98.37,357c-32.82-18.19-56-41.36-74.18-74.18Z"/><path class="cls-2" d="M190.64,190.56l23.19,188.9c-41.62,5.11-78.78-2.11-115.46-22.45Z"/><path class="cls-3" d="M190.64,190.56V.25C295.74.25,381,85.46,381,190.56c0,97-70.83,177.07-167.12,188.9Z"/><ellipse class="cls-9" cx="189.74" cy="190.38" rx="101.99" ry="107.99"/></svg>