<svg id="Слой_1" data-name="Слой 1" xmlns="http://www.w3.org/2000/svg" viewBox="0 0 380.88 380.8"><defs><style>.cls-1{fill:gray;}.cls-1,.cls-2,.cls-3,.cls-4,.cls-5,.cls-6,.cls-7,.cls-8{stroke:#000;stroke-miterlimit:10;stroke-width:0.5px;}.cls-2{fill:#dfdfdf;}.cls-4{fill:#606060;}.cls-5{fill:#bfbfbf;}.cls-6{fill:#202020;}.cls-7{fill:#9f9f9f;}.cls-8{fill:#404040;}.cls-9{fill:#fff;}</style></defs><path class="cls-1" d="M190.55,190.59,4.61,230.11C-17.22,127.42,48.33,26.48,151,4.65A182.42,182.42,0,0,1,190.55.49Z" transform="translate(-0.16 -0.24)"/><path class="cls-2" d="M190.55,190.59l-178.63,65a181.77,181.77,0,0,1-7.31-25.49Z" transform="translate(-0.16 -0.24)"/><path class="cls-3" d="M190.55,190.59l-163,97.9A193.29,193.29,0,0,1,11.92,255.6Z" transform="translate(-0.16 -0.24)"/><path class="cls-4" d="M190.55,190.59,47.08,315.3A173.23,173.23,0,0,1,27.6,288.49Z" transform="translate(-0.16 -0.24)"/><path class="cls-5" d="M190.55,190.59,78.81,344.38A176.21,176.21,0,0,1,47.08,315.3Z" transform="translate(-0.16 -0.24)"/><path class="cls-6" d="M190.55,190.59,122.42,368.06a181.58,181.58,0,0,1-43.61-23.68Z" transform="translate(-0.16 -0.24)"/><path class="cls-7" d="M190.55,190.59,177.29,380.22a190.7,190.7,0,0,1-54.87-12.16Z" transform="translate(-0.16 -0.24)"/><path class="cls-8" d="M190.55,190.59l39.52,185.94a172.76,172.76,0,0,1-52.78,3.69Z" transform="translate(-0.16 -0.24)"/><path class="cls-1" d="M190.55,190.59l109,155.71a186.43,186.43,0,0,1-69.51,30.23Z" transform="translate(-0.16 -0.24)"/><path class="cls-2" d="M190.55,190.59,379.6,170.72c7.54,71.73-20.94,134.21-80,175.58Z" transform="translate(-0.16 -0.24)"/><path class="cls-3" d="M190.55,190.59V.49C288.5.49,369.36,73.3,379.6,170.72Z" transform="translate(-0.16 -0.24)"/><ellipse class="cls-9" cx="189.58" cy="190.13" rx="101.99" ry="107.99"/></svg>