<svg width="191" height="50" viewBox="0 0 191 50" fill="none" xmlns="http://www.w3.org/2000/svg">
<rect width="50" height="50" fill="black"/>
<path d="M19.4375 25.1699H8.3457V34.2402H21.2305V37H4.9707V11.4062H21.0547V14.1836H8.3457V22.4102H19.4375V25.1699ZM44.3281 33.6426C43.4609 34.8848 42.248 35.8164 40.6895 36.4375C39.1426 37.0469 37.3379 37.3516 35.2754 37.3516C33.1895 37.3516 31.3379 36.8652 29.7207 35.8926C28.1035 34.9082 26.8496 33.5137 25.959 31.709C25.0801 29.9043 24.6289 27.8125 24.6055 25.4336V23.2012C24.6055 19.3457 25.502 16.3574 27.2949 14.2363C29.0996 12.1152 31.6309 11.0547 34.8887 11.0547C37.5605 11.0547 39.7109 11.7402 41.3398 13.1113C42.9688 14.4707 43.9648 16.4043 44.3281 18.9121H40.9531C40.3203 15.5254 38.3047 13.832 34.9062 13.832C32.6445 13.832 30.9277 14.6289 29.7559 16.2227C28.5957 17.8047 28.0098 20.1016 27.998 23.1133V25.2051C27.998 28.0762 28.6543 30.3613 29.9668 32.0605C31.2793 33.748 33.0547 34.5918 35.293 34.5918C36.5586 34.5918 37.666 34.4512 38.6152 34.1699C39.5645 33.8887 40.3496 33.4141 40.9707 32.7461V26.998H35.0469V24.2559H44.3281V33.6426Z" fill="white"/>
<path d="M70.7188 26.085H65.1729V30.6201H71.6152V32H63.4854V19.2031H71.5273V20.5918H65.1729V24.7051H70.7188V26.085ZM79.332 32C79.2383 31.8125 79.1621 31.4785 79.1035 30.998C78.3477 31.7832 77.4453 32.1758 76.3965 32.1758C75.459 32.1758 74.6885 31.9121 74.085 31.3848C73.4873 30.8516 73.1885 30.1777 73.1885 29.3633C73.1885 28.373 73.5635 27.6055 74.3135 27.0605C75.0693 26.5098 76.1299 26.2344 77.4951 26.2344H79.0771V25.4873C79.0771 24.9189 78.9072 24.4678 78.5674 24.1338C78.2275 23.7939 77.7266 23.624 77.0645 23.624C76.4844 23.624 75.998 23.7705 75.6055 24.0635C75.2129 24.3564 75.0166 24.7109 75.0166 25.127H73.3818C73.3818 24.6523 73.5488 24.1953 73.8828 23.7559C74.2227 23.3105 74.6797 22.959 75.2539 22.7012C75.834 22.4434 76.4697 22.3145 77.1611 22.3145C78.2568 22.3145 79.1152 22.5898 79.7363 23.1406C80.3574 23.6855 80.6797 24.4385 80.7031 25.3994V29.7764C80.7031 30.6494 80.8145 31.3438 81.0371 31.8594V32H79.332ZM76.6338 30.7607C77.1436 30.7607 77.627 30.6289 78.084 30.3652C78.541 30.1016 78.8721 29.7588 79.0771 29.3369V27.3857H77.8027C75.8105 27.3857 74.8145 27.9688 74.8145 29.1348C74.8145 29.6445 74.9844 30.043 75.3242 30.3301C75.6641 30.6172 76.1006 30.7607 76.6338 30.7607ZM88.7891 29.4775C88.7891 29.0381 88.6221 28.6982 88.2881 28.458C87.96 28.2119 87.3828 28.001 86.5566 27.8252C85.7363 27.6494 85.083 27.4385 84.5967 27.1924C84.1162 26.9463 83.7588 26.6533 83.5244 26.3135C83.2959 25.9736 83.1816 25.5693 83.1816 25.1006C83.1816 24.3213 83.5098 23.6621 84.166 23.123C84.8281 22.584 85.6719 22.3145 86.6973 22.3145C87.7754 22.3145 88.6484 22.5928 89.3164 23.1494C89.9902 23.7061 90.3271 24.418 90.3271 25.2852H88.6924C88.6924 24.8398 88.502 24.4561 88.1211 24.1338C87.7461 23.8115 87.2715 23.6504 86.6973 23.6504C86.1055 23.6504 85.6426 23.7793 85.3086 24.0371C84.9746 24.2949 84.8076 24.6318 84.8076 25.0479C84.8076 25.4404 84.9629 25.7363 85.2734 25.9355C85.584 26.1348 86.1436 26.3252 86.9521 26.5068C87.7666 26.6885 88.4258 26.9053 88.9297 27.1572C89.4336 27.4092 89.8057 27.7139 90.0459 28.0713C90.292 28.4229 90.415 28.8535 90.415 29.3633C90.415 30.2129 90.0752 30.8955 89.3955 31.4111C88.7158 31.9209 87.834 32.1758 86.75 32.1758C85.9883 32.1758 85.3145 32.041 84.7285 31.7715C84.1426 31.502 83.6826 31.127 83.3486 30.6465C83.0205 30.1602 82.8564 29.6357 82.8564 29.0732H84.4824C84.5117 29.6182 84.7285 30.0518 85.1328 30.374C85.543 30.6904 86.082 30.8486 86.75 30.8486C87.3652 30.8486 87.8574 30.7256 88.2266 30.4795C88.6016 30.2275 88.7891 29.8936 88.7891 29.4775ZM95.6445 29.6182L97.8594 22.4902H99.5996L95.7764 33.4678C95.1846 35.0498 94.2441 35.8408 92.9551 35.8408L92.6475 35.8145L92.041 35.7002V34.3818L92.4805 34.417C93.0312 34.417 93.459 34.3057 93.7637 34.083C94.0742 33.8604 94.3291 33.4531 94.5283 32.8613L94.8887 31.8945L91.4961 22.4902H93.2715L95.6445 29.6182ZM115.227 30.3213C114.793 30.9424 114.187 31.4082 113.407 31.7188C112.634 32.0234 111.731 32.1758 110.7 32.1758C109.657 32.1758 108.731 31.9326 107.923 31.4463C107.114 30.9541 106.487 30.2568 106.042 29.3545C105.603 28.4521 105.377 27.4062 105.365 26.2168V25.1006C105.365 23.1729 105.813 21.6787 106.71 20.6182C107.612 19.5576 108.878 19.0273 110.507 19.0273C111.843 19.0273 112.918 19.3701 113.732 20.0557C114.547 20.7354 115.045 21.7021 115.227 22.9561H113.539C113.223 21.2627 112.215 20.416 110.516 20.416C109.385 20.416 108.526 20.8145 107.94 21.6113C107.36 22.4023 107.067 23.5508 107.062 25.0566V26.1025C107.062 27.5381 107.39 28.6807 108.046 29.5303C108.702 30.374 109.59 30.7959 110.709 30.7959C111.342 30.7959 111.896 30.7256 112.37 30.585C112.845 30.4443 113.237 30.207 113.548 29.873V26.999H110.586V25.6279H115.227V30.3213ZM121.739 32.1758C120.45 32.1758 119.401 31.7539 118.593 30.9102C117.784 30.0605 117.38 28.9268 117.38 27.5088V27.21C117.38 26.2666 117.559 25.4258 117.916 24.6875C118.279 23.9434 118.783 23.3633 119.428 22.9473C120.078 22.5254 120.781 22.3145 121.537 22.3145C122.773 22.3145 123.734 22.7217 124.42 23.5361C125.105 24.3506 125.448 25.5166 125.448 27.0342V27.7109H119.006C119.029 28.6484 119.302 29.4072 119.823 29.9873C120.351 30.5615 121.019 30.8486 121.827 30.8486C122.401 30.8486 122.888 30.7314 123.286 30.4971C123.685 30.2627 124.033 29.9521 124.332 29.5654L125.325 30.3389C124.528 31.5635 123.333 32.1758 121.739 32.1758ZM121.537 23.6504C120.881 23.6504 120.33 23.8906 119.885 24.3711C119.439 24.8457 119.164 25.5137 119.059 26.375H123.822V26.252C123.775 25.4258 123.553 24.7871 123.154 24.3359C122.756 23.8789 122.217 23.6504 121.537 23.6504ZM126.907 27.1572C126.907 26.2256 127.089 25.3877 127.452 24.6436C127.821 23.8994 128.331 23.3252 128.981 22.9209C129.638 22.5166 130.385 22.3145 131.223 22.3145C132.518 22.3145 133.563 22.7627 134.36 23.6592C135.163 24.5557 135.564 25.748 135.564 27.2363V27.3506C135.564 28.2764 135.386 29.1084 135.028 29.8467C134.677 30.5791 134.17 31.1504 133.508 31.5605C132.852 31.9707 132.096 32.1758 131.24 32.1758C129.951 32.1758 128.905 31.7275 128.103 30.8311C127.306 29.9346 126.907 28.748 126.907 27.2715V27.1572ZM128.542 27.3506C128.542 28.4053 128.785 29.252 129.271 29.8906C129.764 30.5293 130.42 30.8486 131.24 30.8486C132.066 30.8486 132.723 30.5264 133.209 29.8818C133.695 29.2314 133.938 28.3232 133.938 27.1572C133.938 26.1143 133.689 25.2705 133.191 24.626C132.699 23.9756 132.043 23.6504 131.223 23.6504C130.42 23.6504 129.772 23.9697 129.28 24.6084C128.788 25.2471 128.542 26.1611 128.542 27.3506ZM137.217 27.166C137.217 25.6836 137.56 24.5059 138.245 23.6328C138.931 22.7539 139.839 22.3145 140.97 22.3145C142.13 22.3145 143.035 22.7246 143.686 23.5449L143.765 22.4902H145.25V31.7715C145.25 33.002 144.884 33.9717 144.151 34.6807C143.425 35.3896 142.446 35.7441 141.216 35.7441C140.53 35.7441 139.859 35.5977 139.203 35.3047C138.547 35.0117 138.046 34.6104 137.7 34.1006L138.544 33.125C139.241 33.9863 140.094 34.417 141.102 34.417C141.893 34.417 142.508 34.1943 142.947 33.749C143.393 33.3037 143.615 32.6768 143.615 31.8682V31.0508C142.965 31.8008 142.077 32.1758 140.952 32.1758C139.839 32.1758 138.937 31.7275 138.245 30.8311C137.56 29.9346 137.217 28.7129 137.217 27.166ZM138.852 27.3506C138.852 28.4229 139.071 29.2666 139.511 29.8818C139.95 30.4912 140.565 30.7959 141.356 30.7959C142.382 30.7959 143.135 30.3301 143.615 29.3984V25.0566C143.117 24.1484 142.37 23.6943 141.374 23.6943C140.583 23.6943 139.965 24.002 139.52 24.6172C139.074 25.2324 138.852 26.1436 138.852 27.3506ZM152.308 23.9492C152.062 23.9082 151.795 23.8877 151.508 23.8877C150.441 23.8877 149.718 24.3418 149.337 25.25V32H147.711V22.4902H149.293L149.319 23.5889C149.853 22.7393 150.608 22.3145 151.587 22.3145C151.903 22.3145 152.144 22.3555 152.308 22.4375V23.9492ZM159.33 32C159.236 31.8125 159.16 31.4785 159.102 30.998C158.346 31.7832 157.443 32.1758 156.395 32.1758C155.457 32.1758 154.687 31.9121 154.083 31.3848C153.485 30.8516 153.187 30.1777 153.187 29.3633C153.187 28.373 153.562 27.6055 154.312 27.0605C155.067 26.5098 156.128 26.2344 157.493 26.2344H159.075V25.4873C159.075 24.9189 158.905 24.4678 158.565 24.1338C158.226 23.7939 157.725 23.624 157.062 23.624C156.482 23.624 155.996 23.7705 155.604 24.0635C155.211 24.3564 155.015 24.7109 155.015 25.127H153.38C153.38 24.6523 153.547 24.1953 153.881 23.7559C154.221 23.3105 154.678 22.959 155.252 22.7012C155.832 22.4434 156.468 22.3145 157.159 22.3145C158.255 22.3145 159.113 22.5898 159.734 23.1406C160.355 23.6855 160.678 24.4385 160.701 25.3994V29.7764C160.701 30.6494 160.812 31.3438 161.035 31.8594V32H159.33ZM156.632 30.7607C157.142 30.7607 157.625 30.6289 158.082 30.3652C158.539 30.1016 158.87 29.7588 159.075 29.3369V27.3857H157.801C155.809 27.3857 154.812 27.9688 154.812 29.1348C154.812 29.6445 154.982 30.043 155.322 30.3301C155.662 30.6172 156.099 30.7607 156.632 30.7607ZM171.283 27.3506C171.283 28.7979 170.952 29.9639 170.29 30.8486C169.628 31.7334 168.731 32.1758 167.601 32.1758C166.446 32.1758 165.538 31.8096 164.876 31.0771V35.6562H163.25V22.4902H164.735L164.814 23.5449C165.477 22.7246 166.396 22.3145 167.574 22.3145C168.717 22.3145 169.619 22.7451 170.281 23.6064C170.949 24.4678 171.283 25.666 171.283 27.2012V27.3506ZM169.657 27.166C169.657 26.0938 169.429 25.2471 168.972 24.626C168.515 24.0049 167.888 23.6943 167.091 23.6943C166.106 23.6943 165.368 24.1309 164.876 25.0039V29.5479C165.362 30.415 166.106 30.8486 167.108 30.8486C167.888 30.8486 168.506 30.541 168.963 29.9258C169.426 29.3047 169.657 28.3848 169.657 27.166ZM174.983 23.6416C175.704 22.7568 176.642 22.3145 177.796 22.3145C179.806 22.3145 180.819 23.4482 180.837 25.7158V32H179.211V25.707C179.205 25.0215 179.047 24.5146 178.736 24.1865C178.432 23.8584 177.954 23.6943 177.304 23.6943C176.776 23.6943 176.313 23.835 175.915 24.1162C175.517 24.3975 175.206 24.7666 174.983 25.2236V32H173.357V18.5H174.983V23.6416ZM186.383 29.6182L188.598 22.4902H190.338L186.515 33.4678C185.923 35.0498 184.982 35.8408 183.693 35.8408L183.386 35.8145L182.779 35.7002V34.3818L183.219 34.417C183.77 34.417 184.197 34.3057 184.502 34.083C184.812 33.8604 185.067 33.4531 185.267 32.8613L185.627 31.8945L182.234 22.4902H184.01L186.383 29.6182Z" fill="black"/>
</svg>
