<svg id="Слой_1" data-name="Слой 1" xmlns="http://www.w3.org/2000/svg" viewBox="0 0 381.26 380.71"><defs><style>.cls-1{fill:gray;}.cls-1,.cls-2,.cls-3,.cls-4,.cls-5,.cls-6,.cls-7,.cls-8{stroke:#000;stroke-miterlimit:10;stroke-width:0.5px;}.cls-2{fill:#dfdfdf;}.cls-4{fill:#606060;}.cls-5{fill:#bfbfbf;}.cls-6{fill:#202020;}.cls-7{fill:#9f9f9f;}.cls-8{fill:#404040;}.cls-9{fill:#fff;}</style></defs><path class="cls-1" d="M190.36,190.37l-184.45,46C-19.49,134.49,42.5,31.32,144.37,5.92a192.14,192.14,0,0,1,46-5.65Z" transform="translate(0.03 -0.02)"/><path class="cls-2" d="M190.36,190.37,14.11,261.58a174.4,174.4,0,0,1-8.2-25.23Z" transform="translate(0.03 -0.02)"/><path class="cls-3" d="M190.36,190.37,30.93,293.9a176.83,176.83,0,0,1-16.82-32.32Z" transform="translate(0.03 -0.02)"/><path class="cls-4" d="M190.36,190.37l-132,136.74A184,184,0,0,1,30.93,293.9Z" transform="translate(0.03 -0.02)"/><path class="cls-5" d="M190.36,190.37,92.45,353.31a176.53,176.53,0,0,1-34.14-26.2Z" transform="translate(0.03 -0.02)"/><path class="cls-6" d="M190.36,190.37,138,373.1a185.8,185.8,0,0,1-45.51-19.79Z" transform="translate(0.03 -0.02)"/><path class="cls-7" d="M190.36,190.37l6.63,190a178,178,0,0,1-59-7.24Z" transform="translate(0.03 -0.02)"/><path class="cls-8" d="M190.36,190.37,267.68,364A182,182,0,0,1,197,380.34Z" transform="translate(0.03 -0.02)"/><path class="cls-1" d="M190.36,190.37,370.1,252.25C352.29,304,317.65,341.78,267.68,364Z" transform="translate(0.03 -0.02)"/><path class="cls-2" d="M190.36,190.37,351.57,89.63c31.38,50.22,37.8,106.64,18.53,162.62Z" transform="translate(0.03 -0.02)"/><path class="cls-3" d="M190.36,190.37V.27c68.24,0,125.05,31.49,161.21,89.36Z" transform="translate(0.03 -0.02)"/><ellipse class="cls-9" cx="189.77" cy="190.36" rx="101.99" ry="107.99"/></svg>